<?xml version="1.0" standalone="no"?>
<!DOCTYPE svg PUBLIC "-//W3C//DTD SVG 20010904//EN"
 "http://www.w3.org/TR/2001/REC-SVG-20010904/DTD/svg10.dtd">
<svg version="1.0" xmlns="http://www.w3.org/2000/svg"
 width="146.661549pt" height="179.200779pt" viewBox="0 0 146.661549 179.200779"
 preserveAspectRatio="xMidYMid meet">
<metadata>
Created by potrace 1.12, written by Peter Selinger 2001-2015
</metadata>
<g transform="translate(-25.277539,214.700779) scale(0.100000,-0.100000)"
fill="#000000" stroke="none">
<path d="M566 2135 c-61 -23 -134 -85 -157 -132 -16 -33 -20 -59 -18 -120 2
-78 2 -78 -45 -148 -89 -133 -114 -241 -76 -320 47 -98 158 -130 278 -81 70
28 171 96 218 148 61 66 146 203 114 183 -14 -9 -13 3 6 52 9 24 22 43 28 43
6 0 4 5 -4 10 -13 8 -12 10 3 10 15 0 17 11 17 83 0 130 -44 203 -154 259 -53
27 -156 33 -210 13z m196 -29 c48 -17 94 -54 108 -88 7 -16 16 -28 21 -28 13
0 10 -137 -4 -195 -37 -150 -185 -327 -337 -403 -107 -53 -163 -57 -210 -14
-59 52 -46 142 43 300 l30 53 36 -34 c20 -19 45 -39 56 -45 36 -18 104 -24
182 -16 l78 8 -96 7 c-53 4 -113 12 -132 18 -44 15 -87 63 -87 97 0 49 117
180 202 226 37 21 52 14 44 -18 -5 -17 -2 -24 8 -24 27 0 35 50 10 74 -36 37
-115 2 -214 -96 -60 -59 -70 -66 -70 -46 0 79 65 169 152 212 58 29 120 33
180 12z m74 -510 c-21 -30 -59 -75 -86 -100 -49 -46 -165 -126 -182 -126 -19
0 4 20 57 50 31 18 70 46 88 63 52 52 126 136 138 158 6 11 13 18 16 15 4 -3
-11 -30 -31 -60z"/>
<path d="M960 1608 c0 -61 3 -108 6 -105 4 4 6 43 5 88 -1 45 2 80 7 78 4 -2
41 -41 81 -86 40 -46 74 -83 77 -83 2 0 4 50 4 110 0 125 -18 152 -22 33 l-3
-76 -65 76 c-36 42 -71 77 -77 77 -10 0 -13 -29 -13 -112z"/>
<path d="M1246 1708 c4 -7 22 -34 41 -59 26 -37 33 -56 33 -93 0 -39 3 -46 20
-46 17 0 20 7 20 46 0 36 8 57 40 105 23 32 36 59 30 59 -5 0 -25 -22 -42 -50
-18 -27 -36 -50 -39 -50 -4 0 -21 23 -39 50 -21 32 -39 50 -52 50 -12 0 -17
-4 -12 -12z"/>
<path d="M1536 1708 c4 -7 20 -29 36 -49 15 -20 28 -40 28 -44 0 -4 -18 -29
-41 -56 -22 -27 -36 -49 -31 -49 5 0 27 21 49 46 l38 46 33 -46 c20 -28 41
-46 53 -46 22 0 25 13 5 29 -7 6 -26 29 -41 51 l-27 39 36 42 c20 24 33 45 30
48 -3 3 -21 -14 -41 -37 l-35 -43 -30 41 c-17 23 -38 40 -49 40 -13 0 -18 -4
-13 -12z"/>
<path d="M845 1370 c-3 -5 -3 -15 0 -20 12 -20 -7 -49 -55 -84 -81 -59 -201
-177 -242 -240 -41 -64 -46 -83 -23 -92 15 -6 54 31 55 53 1 33 229 260 237
236 3 -9 -17 -76 -63 -208 -27 -80 -36 -95 -53 -93 -10 2 -18 -10 -24 -39 -8
-44 -26 -61 -75 -69 -29 -6 -38 -11 -30 -19 3 -3 24 2 48 10 53 19 50 20 48
-10 -1 -14 -6 -25 -11 -25 -4 0 -6 -4 -3 -8 2 -4 -5 -28 -16 -52 -23 -51 -39
-100 -32 -100 2 0 15 24 28 54 13 29 28 56 33 59 6 4 15 -10 22 -31 28 -90
112 -162 188 -162 44 0 101 24 136 58 39 37 70 90 63 107 -3 8 0 15 5 15 15 0
7 126 -8 141 -9 9 -10 1 -6 -27 16 -118 -104 -254 -224 -254 -34 0 -46 6 -71
34 -54 62 -81 206 -44 238 9 9 44 30 77 48 147 79 282 196 326 281 38 77 38
108 -5 153 -28 31 -40 36 -77 36 -24 0 -69 -7 -99 -15 -30 -8 -55 -13 -56 -12
-1 1 -7 12 -13 25 -13 24 -26 28 -36 12z m274 -54 c19 -23 3 -82 -36 -132 -18
-25 -31 -50 -27 -56 4 -6 3 -8 -3 -5 -5 3 -39 -21 -74 -54 -35 -34 -58 -58
-50 -53 12 6 11 3 -1 -15 -8 -12 -40 -36 -69 -54 -30 -18 -64 -40 -76 -47 -28
-18 -48 -2 -38 30 5 16 10 19 15 10 9 -14 92 190 110 273 7 31 19 62 26 68 50
41 199 64 223 35z"/>
<path d="M875 984 l-30 -26 33 22 c17 12 32 23 32 26 0 7 -4 5 -35 -22z"/>
<path d="M1352 1050 c-23 -21 -50 -57 -60 -79 -19 -38 -19 -41 -3 -68 l17 -28
-48 -49 c-79 -81 -78 -137 3 -95 53 26 131 85 143 106 10 18 -3 29 -56 43 -29
8 -38 16 -38 33 0 30 35 85 78 125 39 35 52 38 70 20 7 -7 12 -8 12 -2 0 18
-24 34 -51 34 -17 0 -40 -13 -67 -40z m-2 -215 c-17 -20 -110 -78 -116 -73 -2
3 16 28 42 57 39 44 48 49 65 40 16 -8 18 -13 9 -24z"/>
<path d="M1531 1053 c-31 -27 -91 -150 -91 -188 0 -18 9 -43 19 -56 l20 -24
43 23 c39 21 108 94 117 125 2 6 -23 -13 -55 -44 -61 -59 -97 -83 -108 -72
-18 19 7 113 30 113 31 0 74 31 81 58 9 38 6 64 -9 73 -18 12 -23 11 -47 -8z
m30 -61 c-12 -29 -51 -61 -51 -41 0 14 19 50 39 72 20 24 27 5 12 -31z"/>
<path d="M1164 1017 c-72 -73 -94 -146 -56 -180 38 -34 68 -20 138 66 12 14
19 28 17 31 -3 3 -6 26 -7 52 -1 32 -8 50 -21 60 -25 19 -24 19 -71 -29z m72
-43 c-3 -9 -6 -20 -6 -25 0 -5 -7 -9 -15 -9 -18 0 -19 4 -3 30 15 24 33 27 24
4z m-38 -46 c13 -16 13 -20 -2 -43 -15 -23 -61 -44 -72 -32 -10 10 7 66 29 93
15 19 22 23 25 13 3 -8 11 -22 20 -31z"/>
<path d="M575 570 c-4 -12 -5 -24 -2 -27 3 -2 8 5 12 17 4 12 5 24 2 27 -3 2
-8 -5 -12 -17z"/>
<path d="M441 433 c-22 -60 -24 -70 -11 -50 15 23 47 22 55 -4 4 -11 9 -18 12
-15 7 6 -27 106 -36 106 -4 0 -13 -17 -20 -37z"/>
<path d="M570 415 l0 -55 33 1 c29 1 30 2 7 8 -21 6 -25 13 -27 48 -1 38 1 42
25 46 24 4 23 4 -5 6 l-33 1 0 -55z"/>
<path d="M703 453 c-4 -11 3 -24 22 -38 30 -25 26 -50 -8 -41 -14 3 -17 2 -9
-6 15 -15 52 0 52 22 0 10 -12 27 -27 38 l-28 21 25 10 c25 10 25 10 2 10 -12
1 -25 -6 -29 -16z"/>
<path d="M847 463 c19 -4 23 -12 26 -56 l3 -52 2 52 c2 45 5 52 25 56 12 2 0
4 -28 4 -27 0 -40 -2 -28 -4z"/>
<path d="M980 415 c0 -30 5 -55 10 -55 6 0 10 11 10 25 0 21 5 25 29 25 25 0
30 -5 34 -27 2 -16 5 -1 6 31 1 55 -7 73 -13 29 -2 -11 -13 -19 -29 -21 -23
-3 -27 0 -27 22 0 14 -4 26 -10 26 -5 0 -10 -25 -10 -55z"/>
<path d="M1130 415 l0 -55 33 1 c23 1 26 3 10 6 -20 4 -23 11 -23 48 0 37 3
44 23 48 16 3 13 5 -10 6 l-33 1 0 -55z"/>
<path d="M1278 463 c19 -4 22 -11 22 -54 0 -27 5 -49 10 -49 6 0 10 22 10 49
0 43 3 50 23 54 12 2 -3 4 -33 4 -30 0 -45 -2 -32 -4z"/>
<path d="M1420 414 c0 -34 4 -53 10 -49 6 3 10 28 10 56 0 27 -4 49 -10 49 -5
0 -10 -25 -10 -56z"/>
<path d="M1516 454 c-36 -35 -8 -95 42 -93 26 1 26 1 -4 10 -35 10 -46 33 -32
68 7 19 14 22 38 19 16 -2 27 -1 24 4 -9 14 -52 9 -68 -8z"/>
<path d="M1659 454 c-11 -14 -9 -19 14 -36 33 -24 34 -36 5 -48 -22 -8 -22 -9
-2 -9 45 -2 59 43 19 61 -31 14 -32 35 -2 41 21 4 21 4 1 6 -12 0 -28 -6 -35
-15z"/>
</g>
</svg>
