<?xml version="1.0" encoding="UTF-8"?>
<!DOCTYPE svg PUBLIC "-//W3C//DTD SVG 1.1//EN" "http://www.w3.org/Graphics/SVG/1.1/DTD/svg11.dtd">
<svg xmlns="http://www.w3.org/2000/svg" version="1.1" width="213px" height="229px" style="shape-rendering:geometricPrecision; text-rendering:geometricPrecision; image-rendering:optimizeQuality; fill-rule:evenodd; clip-rule:evenodd" xmlns:xlink="http://www.w3.org/1999/xlink">
<g><path style="opacity:1" fill="#fdfdfd" d="M -0.5,-0.5 C 70.5,-0.5 141.5,-0.5 212.5,-0.5C 212.5,75.8333 212.5,152.167 212.5,228.5C 141.5,228.5 70.5,228.5 -0.5,228.5C -0.5,152.167 -0.5,75.8333 -0.5,-0.5 Z"/></g>
<g><path style="opacity:1" fill="#f7f7f7" d="M 64.5,16.5 C 79.5753,16.0875 87.9086,23.2542 89.5,38C 88.6358,51.9058 83.4691,64.0724 74,74.5C 70.1879,78.2979 66.3546,81.9645 62.5,85.5C 59.0078,86.4097 56.0078,88.0764 53.5,90.5C 47.7571,93.108 41.7571,93.9413 35.5,93C 29.9592,89.1779 28.1259,84.0112 30,77.5C 33.0975,69.8687 36.7642,62.5354 41,55.5C 44.2508,59.4217 48.0841,62.5883 52.5,65C 59.5095,65.4226 66.5095,65.2559 73.5,64.5C 75.4286,64.7692 77.0953,64.2692 78.5,63C 74.9733,62.1925 71.6399,62.3592 68.5,63.5C 40.4818,61.5954 37.1485,51.4287 58.5,33C 61.6422,30.0956 65.3089,28.2622 69.5,27.5C 69.6427,29.2624 69.3094,30.9291 68.5,32.5C 70.0072,33.7388 71.1739,33.4054 72,31.5C 72.5379,25.4809 69.7045,23.3142 63.5,25C 55.734,29.7679 48.9007,35.6013 43,42.5C 41.8895,37.3889 42.8895,32.7223 46,28.5C 51.0428,22.5743 57.2095,18.5743 64.5,16.5 Z"/></g>
<g><path style="opacity:1" fill="#171717" d="M 72.5,14.5 C 69.8333,15.1667 67.1667,15.8333 64.5,16.5C 57.2095,18.5743 51.0428,22.5743 46,28.5C 42.8895,32.7223 41.8895,37.3889 43,42.5C 48.9007,35.6013 55.734,29.7679 63.5,25C 69.7045,23.3142 72.5379,25.4809 72,31.5C 71.1739,33.4054 70.0072,33.7388 68.5,32.5C 69.3094,30.9291 69.6427,29.2624 69.5,27.5C 65.3089,28.2622 61.6422,30.0956 58.5,33C 37.1485,51.4287 40.4818,61.5954 68.5,63.5C 70.4147,63.2155 72.0813,63.5489 73.5,64.5C 66.5095,65.2559 59.5095,65.4226 52.5,65C 48.0841,62.5883 44.2508,59.4217 41,55.5C 36.7642,62.5354 33.0975,69.8687 30,77.5C 28.1259,84.0112 29.9592,89.1779 35.5,93C 41.7571,93.9413 47.7571,93.108 53.5,90.5C 54.9613,91.6857 56.2946,91.6857 57.5,90.5C 67.9828,85.6774 76.6495,78.6774 83.5,69.5C 74.8718,85.0781 61.7052,94.4114 44,97.5C 31.7849,97.1191 25.2849,90.7858 24.5,78.5C 25.1355,74.2881 26.1355,70.2881 27.5,66.5C 28.8235,67.8499 29.8235,67.6833 30.5,66C 32.3666,62.4346 34.3666,58.9346 36.5,55.5C 36.1373,54.8165 35.8039,54.1499 35.5,53.5C 35.6854,51.8042 36.5187,50.4709 38,49.5C 35.1603,29.0265 43.8269,17.0265 64,13.5C 66.865,13.6843 69.6984,14.0177 72.5,14.5 Z"/></g>
<g><path style="opacity:1" fill="#4c4c4c" d="M 35.5,53.5 C 35.8039,54.1499 36.1373,54.8165 36.5,55.5C 34.3666,58.9346 32.3666,62.4346 30.5,66C 29.8235,67.6833 28.8235,67.8499 27.5,66.5C 29.4176,61.6566 32.0843,57.3233 35.5,53.5 Z"/></g>
<g><path style="opacity:1" fill="#232323" d="M 72.5,14.5 C 89.9048,21.1419 95.9048,33.3086 90.5,51C 90.8333,51.3333 91.1667,51.6667 91.5,52C 90.244,52.4169 89.5774,53.2502 89.5,54.5C 88.0687,55.7804 87.4021,57.4471 87.5,59.5C 85.2295,61.6123 83.8961,64.279 83.5,67.5C 78.7464,71.4234 74.4131,75.9234 70.5,81C 68.1829,83.1569 65.5162,84.6569 62.5,85.5C 66.3546,81.9645 70.1879,78.2979 74,74.5C 83.4691,64.0724 88.6358,51.9058 89.5,38C 87.9086,23.2542 79.5753,16.0875 64.5,16.5C 67.1667,15.8333 69.8333,15.1667 72.5,14.5 Z"/></g>
<g><path style="opacity:1" fill="#8f8f8f" d="M 89.5,54.5 C 90.3764,54.3691 91.0431,54.7025 91.5,55.5C 91.0345,57.8083 89.7012,59.1416 87.5,59.5C 87.4021,57.4471 88.0687,55.7804 89.5,54.5 Z"/></g>
<g><path style="opacity:1" fill="#535353" d="M 111.5,77.5 C 112.833,75.5 112.833,73.5 111.5,71.5C 111.173,66.456 111.506,61.456 112.5,56.5C 113.833,63.8333 113.833,71.1667 112.5,78.5C 111.893,78.3764 111.56,78.0431 111.5,77.5 Z"/></g>
<g><path style="opacity:1" fill="#202020" d="M 152.5,56.5 C 153.873,56.3433 155.207,56.51 156.5,57C 157.976,59.6432 159.976,61.8099 162.5,63.5C 165.024,61.8099 167.024,59.6432 168.5,57C 169.167,56.3333 169.833,56.3333 170.5,57C 168.356,59.9789 166.022,62.8122 163.5,65.5C 165.922,69.3438 168.589,73.0105 171.5,76.5C 170.277,77.6139 168.944,77.7805 167.5,77C 165.333,74.1667 163.167,71.3333 161,68.5C 158.147,71.0518 155.647,73.8851 153.5,77C 152.833,77.6667 152.167,77.6667 151.5,77C 154.412,73.8313 157.079,70.498 159.5,67C 157.326,63.3389 154.993,59.8389 152.5,56.5 Z"/></g>
<g><path style="opacity:1" fill="#161616" d="M 111.5,71.5 C 112.833,73.5 112.833,75.5 111.5,77.5C 107.511,72.1793 103.178,67.1793 98.5,62.5C 98.44,61.9569 98.1067,61.6236 97.5,61.5C 96.8332,66.9853 96.1665,72.3187 95.5,77.5C 95.5,70.5 95.5,63.5 95.5,56.5C 96.675,56.281 97.675,56.6143 98.5,57.5C 102.883,62.213 107.217,66.8797 111.5,71.5 Z"/></g>
<g><path style="opacity:1" fill="#b1b1b1" d="M 68.5,63.5 C 71.6399,62.3592 74.9733,62.1925 78.5,63C 77.0953,64.2692 75.4286,64.7692 73.5,64.5C 72.0813,63.5489 70.4147,63.2155 68.5,63.5 Z"/></g>
<g><path style="opacity:1" fill="#1d1d1d" d="M 124.5,56.5 C 125.552,56.3505 126.552,56.5172 127.5,57C 129.479,60.4717 131.812,63.6383 134.5,66.5C 145.331,53.1652 145.831,53.4986 136,67.5C 135.502,70.8168 135.335,74.1501 135.5,77.5C 134.167,77.5 132.833,77.5 131.5,77.5C 131.665,74.1501 131.498,70.8168 131,67.5C 128.306,64.1076 126.14,60.4409 124.5,56.5 Z"/></g>
<g><path style="opacity:1" fill="#a6a6a6" d="M 87.5,59.5 C 88.6857,60.9613 88.6857,62.2946 87.5,63.5C 86.1667,64.8333 84.8333,66.1667 83.5,67.5C 83.8961,64.279 85.2295,61.6123 87.5,59.5 Z"/></g>
<g><path style="opacity:1" fill="#525252" d="M 87.5,63.5 C 87.1551,66.1979 85.8218,68.1979 83.5,69.5C 83.5,68.8333 83.5,68.1667 83.5,67.5C 84.8333,66.1667 86.1667,64.8333 87.5,63.5 Z"/></g>
<g><path style="opacity:1" fill="#929292" d="M 98.5,62.5 C 97.8335,67.6813 97.1668,73.0147 96.5,78.5C 95.8933,78.3764 95.56,78.0431 95.5,77.5C 96.1665,72.3187 96.8332,66.9853 97.5,61.5C 98.1067,61.6236 98.44,61.9569 98.5,62.5 Z"/></g>
<g><path style="opacity:1" fill="#c7c7c7" d="M 83.5,67.5 C 83.5,68.1667 83.5,68.8333 83.5,69.5C 76.6495,78.6774 67.9828,85.6774 57.5,90.5C 57.0618,90.5654 56.7284,90.3988 56.5,90C 59.1064,89.2082 61.1064,87.7082 62.5,85.5C 65.5162,84.6569 68.1829,83.1569 70.5,81C 74.4131,75.9234 78.7464,71.4234 83.5,67.5 Z"/></g>
<g><path style="opacity:1" fill="#505050" d="M 62.5,85.5 C 61.1064,87.7082 59.1064,89.2082 56.5,90C 56.7284,90.3988 57.0618,90.5654 57.5,90.5C 56.2946,91.6857 54.9613,91.6857 53.5,90.5C 56.0078,88.0764 59.0078,86.4097 62.5,85.5 Z"/></g>
<g><path style="opacity:1" fill="#fbf8f6" d="M 109.5,95.5 C 111.148,97.4559 111.815,99.7892 111.5,102.5C 110.538,105.757 109.038,108.757 107,111.5C 103.296,115.036 99.7961,118.702 96.5,122.5C 90.459,127.199 84.1257,131.532 77.5,135.5C 76.8933,135.376 76.56,135.043 76.5,134.5C 81.4483,123.927 85.2816,112.927 88,101.5C 94.2828,96.448 101.449,94.448 109.5,95.5 Z"/></g>
<g><path style="opacity:1" fill="#854a47" d="M 110.5,94.5 C 112.587,95.5846 113.92,97.2512 114.5,99.5C 113.1,100.1 112.1,101.1 111.5,102.5C 111.815,99.7892 111.148,97.4559 109.5,95.5C 110.167,95.5 110.5,95.1667 110.5,94.5 Z"/></g>
<g><path style="opacity:1" fill="#841a17" d="M 110.5,94.5 C 110.5,95.1667 110.167,95.5 109.5,95.5C 101.449,94.448 94.2828,96.448 88,101.5C 85.2816,112.927 81.4483,123.927 76.5,134.5C 74.6499,133.305 73.6499,133.971 73.5,136.5C 73.7466,139.082 75.08,139.915 77.5,139C 84.0751,135.218 90.0751,130.718 95.5,125.5C 96.3857,124.675 96.719,123.675 96.5,122.5C 99.7961,118.702 103.296,115.036 107,111.5C 109.038,108.757 110.538,105.757 111.5,102.5C 112.1,101.1 113.1,100.1 114.5,99.5C 114.833,99.5 115.167,99.5 115.5,99.5C 115.417,105.682 113.583,111.349 110,116.5C 105.468,121.367 100.634,125.867 95.5,130C 87.2159,135.054 79.0492,140.221 71,145.5C 70.0687,155.282 72.902,163.782 79.5,171C 90.6153,171.774 98.9486,167.274 104.5,157.5C 106.5,157.5 107.5,158.5 107.5,160.5C 106.5,162.5 105.5,164.5 104.5,166.5C 98.5174,173.75 90.8508,176.584 81.5,175C 78.1199,173.629 75.2866,171.462 73,168.5C 70.5325,164.229 68.3659,159.896 66.5,155.5C 65.5655,154.432 65.2322,153.099 65.5,151.5C 66.4682,149.393 66.8016,147.059 66.5,144.5C 67.1587,141.545 67.4921,138.545 67.5,135.5C 70.2385,136.035 72.0718,135.035 73,132.5C 75.9827,124.038 78.816,115.538 81.5,107C 81.1667,106.5 80.8333,106 80.5,105.5C 69.6695,113.325 61.0029,122.992 54.5,134.5C 53.1916,135.626 51.8583,135.626 50.5,134.5C 51.5956,129.642 53.7623,125.309 57,121.5C 64.7757,112.718 73.4424,105.051 83,98.5C 83.2256,95.905 83.7256,93.405 84.5,91C 87.1486,91.1355 88.8152,92.6355 89.5,95.5C 96.4999,92.0697 103.5,91.7364 110.5,94.5 Z"/></g>
<g><path style="opacity:1" fill="#e3beb9" d="M 140.5,123.5 C 140.611,122.883 140.944,122.383 141.5,122C 143.085,121.915 144.418,121.749 145.5,121.5C 143.977,119.717 141.977,119.051 139.5,119.5C 141.343,118.717 143.343,118.05 145.5,117.5C 146.466,119.396 146.799,121.396 146.5,123.5C 144.5,123.5 142.5,123.5 140.5,123.5 Z"/></g>
<g><path style="opacity:1" fill="#f9f3f0" d="M 66.5,144.5 C 65.609,145.11 64.609,145.443 63.5,145.5C 64.9864,142.629 63.9864,141.295 60.5,141.5C 60.33,140.178 60.6634,139.011 61.5,138C 63.3126,138.046 64.9793,137.88 66.5,137.5C 64.9848,135.453 64.1515,133.119 64,130.5C 62.3764,130.57 60.5431,131.07 58.5,132C 58.9574,132.414 59.2907,132.914 59.5,133.5C 57.4733,134.693 55.9733,136.36 55,138.5C 53.6439,137.62 52.1439,137.286 50.5,137.5C 50.5,136.5 50.5,135.5 50.5,134.5C 51.8583,135.626 53.1916,135.626 54.5,134.5C 61.0029,122.992 69.6695,113.325 80.5,105.5C 80.8333,106 81.1667,106.5 81.5,107C 78.816,115.538 75.9827,124.038 73,132.5C 72.0718,135.035 70.2385,136.035 67.5,135.5C 67.4921,138.545 67.1587,141.545 66.5,144.5 Z"/></g>
<g><path style="opacity:1" fill="#811917" d="M 139.5,119.5 C 141.977,119.051 143.977,119.717 145.5,121.5C 144.418,121.749 143.085,121.915 141.5,122C 140.944,122.383 140.611,122.883 140.5,123.5C 135.789,126.198 132.456,130.198 130.5,135.5C 129.833,136.5 129.167,137.5 128.5,138.5C 128.5,138.167 128.5,137.833 128.5,137.5C 128.5,135.833 128.5,134.167 128.5,132.5C 130.355,126.644 134.021,122.311 139.5,119.5 Z"/></g>
<g><path style="opacity:1" fill="#fbf7f5" d="M 115.5,99.5 C 116.161,101.134 116.494,102.967 116.5,105C 115.056,108.848 114.223,112.681 114,116.5C 109.91,118.42 107.077,121.42 105.5,125.5C 103.827,127.086 101.827,127.753 99.5,127.5C 99.7657,131.079 101.099,131.413 103.5,128.5C 104.503,131.035 103.837,133.202 101.5,135C 102.944,135.781 104.277,135.614 105.5,134.5C 106.986,132.698 107.986,130.698 108.5,128.5C 109.833,128.5 111.167,128.5 112.5,128.5C 111.912,123.823 113.579,122.156 117.5,123.5C 117.5,124.167 117.5,124.833 117.5,125.5C 109.285,130.412 106.951,137.246 110.5,146C 116.359,147.238 120.359,145.071 122.5,139.5C 123.758,136.636 125.758,135.97 128.5,137.5C 128.5,137.833 128.5,138.167 128.5,138.5C 128.923,139.265 129.257,140.098 129.5,141C 125.939,144.058 122.939,147.558 120.5,151.5C 119.193,153.223 119.193,155.057 120.5,157C 122.506,156.85 124.506,156.35 126.5,155.5C 126.021,161.395 123.354,162.395 118.5,158.5C 118.204,152.301 116.037,151.301 112,155.5C 111.559,158.94 110.726,162.273 109.5,165.5C 107.955,166.452 106.288,166.785 104.5,166.5C 105.5,164.5 106.5,162.5 107.5,160.5C 108.757,155.297 108.757,149.964 107.5,144.5C 107.217,143.711 106.717,143.044 106,142.5C 105.501,146.486 105.334,150.486 105.5,154.5C 104.89,155.391 104.557,156.391 104.5,157.5C 98.9486,167.274 90.6153,171.774 79.5,171C 72.902,163.782 70.0687,155.282 71,145.5C 79.0492,140.221 87.2159,135.054 95.5,130C 100.634,125.867 105.468,121.367 110,116.5C 113.583,111.349 115.417,105.682 115.5,99.5 Z"/></g>
<g><path style="opacity:1" fill="#c4918d" d="M 96.5,122.5 C 96.719,123.675 96.3857,124.675 95.5,125.5C 90.0751,130.718 84.0751,135.218 77.5,139C 75.08,139.915 73.7466,139.082 73.5,136.5C 73.6499,133.971 74.6499,133.305 76.5,134.5C 76.56,135.043 76.8933,135.376 77.5,135.5C 84.1257,131.532 90.459,127.199 96.5,122.5 Z"/></g>
<g><path style="opacity:1" fill="#8d3938" d="M 128.5,132.5 C 128.5,134.167 128.5,135.833 128.5,137.5C 125.758,135.97 123.758,136.636 122.5,139.5C 122.762,138.022 122.429,136.689 121.5,135.5C 120.893,135.624 120.56,135.957 120.5,136.5C 119.167,135.833 118.167,134.833 117.5,133.5C 119.758,133.225 120.092,132.225 118.5,130.5C 120.559,129.049 121.559,127.049 121.5,124.5C 120.041,124.433 118.708,124.766 117.5,125.5C 117.5,124.833 117.5,124.167 117.5,123.5C 120.547,121.887 123.047,122.554 125,125.5C 125.179,128.553 125.679,131.553 126.5,134.5C 127.182,133.757 127.849,133.091 128.5,132.5 Z"/></g>
<g><path style="opacity:1" fill="#fce6d7" d="M 121.5,130.5 C 122.782,131.708 122.782,133.042 121.5,134.5C 120.374,133.192 120.374,131.858 121.5,130.5 Z"/></g>
<g><path style="opacity:1" fill="#f5e9e5" d="M 117.5,133.5 C 118.167,134.833 119.167,135.833 120.5,136.5C 118.975,140.688 115.975,143.021 111.5,143.5C 111.281,138.94 112.948,135.273 116.5,132.5C 117.107,132.624 117.44,132.957 117.5,133.5 Z"/></g>
<g><path style="opacity:1" fill="#812725" d="M 155.5,134.5 C 148.267,135.063 145.267,139.063 146.5,146.5C 151.803,145.876 155.803,143.209 158.5,138.5C 160.129,137.375 161.629,136.041 163,134.5C 161.462,138.754 158.962,142.587 155.5,146C 145.379,151.441 141.546,148.274 144,136.5C 146.254,132.993 148.254,129.327 150,125.5C 154.173,119.851 157.339,120.185 159.5,126.5C 158.469,129.369 157.136,132.036 155.5,134.5 Z"/></g>
<g><path style="opacity:1" fill="#f1cfc3" d="M 155.5,124.5 C 156.748,128.363 155.414,131.363 151.5,133.5C 150.417,132.635 150.251,131.635 151,130.5C 152.332,128.34 153.832,126.34 155.5,124.5 Z"/></g>
<g><path style="opacity:1" fill="#f7e2df" d="M 155.5,134.5 C 154.01,136.28 152.01,136.946 149.5,136.5C 149.5,137.5 149.5,138.5 149.5,139.5C 151.262,139.357 152.929,139.691 154.5,140.5C 155.524,139.147 156.857,138.48 158.5,138.5C 155.803,143.209 151.803,145.876 146.5,146.5C 145.267,139.063 148.267,135.063 155.5,134.5 Z"/></g>
<g><path style="opacity:1" fill="#821f1d" d="M 117.5,133.5 C 117.44,132.957 117.107,132.624 116.5,132.5C 112.948,135.273 111.281,138.94 111.5,143.5C 115.975,143.021 118.975,140.688 120.5,136.5C 120.56,135.957 120.893,135.624 121.5,135.5C 122.429,136.689 122.762,138.022 122.5,139.5C 120.359,145.071 116.359,147.238 110.5,146C 106.951,137.246 109.285,130.412 117.5,125.5C 118.708,124.766 120.041,124.433 121.5,124.5C 121.559,127.049 120.559,129.049 118.5,130.5C 120.092,132.225 119.758,133.225 117.5,133.5 Z"/></g>
<g><path style="opacity:1" fill="#803138" d="M 130.5,135.5 C 130.868,139.201 132.868,141.201 136.5,141.5C 135.508,141.328 134.842,141.662 134.5,142.5C 133.127,142.343 131.793,142.51 130.5,143C 127.601,145.729 124.934,148.562 122.5,151.5C 121.833,151.5 121.167,151.5 120.5,151.5C 122.939,147.558 125.939,144.058 129.5,141C 129.257,140.098 128.923,139.265 128.5,138.5C 129.167,137.5 129.833,136.5 130.5,135.5 Z"/></g>
<g><path style="opacity:1" fill="#976a6c" d="M 66.5,144.5 C 66.8016,147.059 66.4682,149.393 65.5,151.5C 65.5,150.167 65.5,148.833 65.5,147.5C 60.5241,148.41 55.6908,149.743 51,151.5C 50.8333,151.167 50.6667,150.833 50.5,150.5C 54.7568,148.534 59.0901,146.868 63.5,145.5C 64.609,145.443 65.609,145.11 66.5,144.5 Z"/></g>
<g><path style="opacity:1" fill="#f1e1d9" d="M 134.5,142.5 C 135.706,143.88 135.373,145.047 133.5,146C 130.337,148.416 127.004,150.582 123.5,152.5C 122.893,152.376 122.56,152.043 122.5,151.5C 124.934,148.562 127.601,145.729 130.5,143C 131.793,142.51 133.127,142.343 134.5,142.5 Z"/></g>
<g><path style="opacity:1" fill="#851a1a" d="M 136.5,141.5 C 139.342,141.528 140.509,142.862 140,145.5C 135.521,148.976 131.021,152.31 126.5,155.5C 124.506,156.35 122.506,156.85 120.5,157C 119.193,155.057 119.193,153.223 120.5,151.5C 121.167,151.5 121.833,151.5 122.5,151.5C 122.56,152.043 122.893,152.376 123.5,152.5C 127.004,150.582 130.337,148.416 133.5,146C 135.373,145.047 135.706,143.88 134.5,142.5C 134.842,141.662 135.508,141.328 136.5,141.5 Z"/></g>
<g><path style="opacity:1" fill="#bc8585" d="M 107.5,144.5 C 106.833,147.833 106.167,151.167 105.5,154.5C 105.334,150.486 105.501,146.486 106,142.5C 106.717,143.044 107.217,143.711 107.5,144.5 Z"/></g>
<g><path style="opacity:1" fill="#873232" d="M 107.5,144.5 C 108.757,149.964 108.757,155.297 107.5,160.5C 107.5,158.5 106.5,157.5 104.5,157.5C 104.557,156.391 104.89,155.391 105.5,154.5C 106.167,151.167 106.833,147.833 107.5,144.5 Z"/></g>
<g><path style="opacity:1" fill="#77393e" d="M 65.5,151.5 C 65.2322,153.099 65.5655,154.432 66.5,155.5C 64.0305,158.774 62.3638,162.441 61.5,166.5C 60.7093,164.691 60.7093,162.691 61.5,160.5C 63.5681,157.788 64.9014,154.788 65.5,151.5 Z"/></g>
<g><path style="opacity:1" fill="#ae9091" d="M 61.5,160.5 C 60.7093,162.691 60.7093,164.691 61.5,166.5C 59.4135,170.073 57.5801,173.74 56,177.5C 55.8333,176.833 55.6667,176.167 55.5,175.5C 57.287,170.926 58.787,166.259 60,161.5C 60.3826,160.944 60.8826,160.611 61.5,160.5 Z"/></g>
<g><path style="opacity:1" fill="#494949" d="M 141.5,181.5 C 142.787,182.871 143.453,184.705 143.5,187C 143.167,188.833 142.833,190.667 142.5,192.5C 141.511,188.893 141.177,185.226 141.5,181.5 Z"/></g>
<g><path style="opacity:1" fill="#1e201f" d="M 58.5,182.5 C 57.8333,185.5 57.1667,188.5 56.5,191.5C 56.5,188.167 56.5,184.833 56.5,181.5C 58.5273,181.338 60.5273,181.505 62.5,182C 61.2068,182.49 59.8734,182.657 58.5,182.5 Z"/></g>
<g><path style="opacity:1" fill="#262827" d="M 88.5,182.5 C 87.6805,185.305 87.1805,188.305 87,191.5C 86.8195,188.305 86.3195,185.305 85.5,182.5C 86.5,181.167 87.5,181.167 88.5,182.5 Z"/></g>
<g><path style="opacity:1" fill="#4b4b4b" d="M 125.5,182.5 C 131.565,181.166 133.565,181.166 131.5,182.5C 130.833,195.833 130.167,195.833 129.5,182.5C 128.167,182.5 126.833,182.5 125.5,182.5 Z"/></g>
<g><path style="opacity:1" fill="#4e4f4e" d="M 70.5,181.5 C 74.8383,181.622 75.1716,181.955 71.5,182.5C 72.7242,184.82 74.0575,187.153 75.5,189.5C 75.3918,190.442 75.0585,191.275 74.5,192C 72.7412,192.798 71.0745,192.631 69.5,191.5C 70.6888,190.571 72.0222,190.238 73.5,190.5C 73.3385,188.176 72.1718,186.509 70,185.5C 69.4209,184.072 69.5876,182.738 70.5,181.5 Z"/></g>
<g><path style="opacity:1" fill="#5b5b5b" d="M 152.5,181.5 C 154.75,181.181 156.75,181.681 158.5,183C 152.382,181.622 150.382,183.956 152.5,190C 154.5,190.333 156.5,190.667 158.5,191C 151.707,194.216 148.874,192.049 150,184.5C 150.698,183.309 151.531,182.309 152.5,181.5 Z"/></g>
<g><path style="opacity:1" fill="#747574" d="M 58.5,182.5 C 58.4802,184.143 59.1468,185.476 60.5,186.5C 58.9951,187.842 58.3285,189.508 58.5,191.5C 62.7518,192.459 62.0852,192.459 56.5,191.5C 57.1667,188.5 57.8333,185.5 58.5,182.5 Z"/></g>
<g><path style="opacity:1" fill="#555555" d="M 164.5,182.5 C 166.463,184.279 168.629,185.946 171,187.5C 170.965,192.395 168.798,193.562 164.5,191C 170.988,190.764 171.154,188.931 165,185.5C 164.517,184.552 164.351,183.552 164.5,182.5 Z"/></g>
<g><path style="opacity:1" fill="#5a5a5a" d="M 97.5,181.5 C 99.1765,182.183 99.8432,183.517 99.5,185.5C 101.167,185.5 102.833,185.5 104.5,185.5C 104.238,184.022 104.571,182.689 105.5,181.5C 106.833,185.167 106.833,188.833 105.5,192.5C 104.548,190.955 104.215,189.288 104.5,187.5C 102.833,187.5 101.167,187.5 99.5,187.5C 99.7852,189.288 99.4519,190.955 98.5,192.5C 97.5108,188.893 97.1774,185.226 97.5,181.5 Z"/></g>
<g><path style="opacity:1" fill="#555555" d="M 44.5,181.5 C 46.335,182.122 47.5017,183.456 48,185.5C 48.8365,187.821 49.1699,190.155 49,192.5C 47.0909,187.684 44.7576,187.351 42,191.5C 42.4919,188.15 43.3253,184.817 44.5,181.5 Z"/></g>
<g><path style="opacity:1" fill="#9f9f9f" d="M 85.5,182.5 C 86.3195,185.305 86.8195,188.305 87,191.5C 87.1805,188.305 87.6805,185.305 88.5,182.5C 88.5,185.833 88.5,189.167 88.5,192.5C 87.5,192.5 86.5,192.5 85.5,192.5C 85.5,189.167 85.5,185.833 85.5,182.5 Z"/></g>
<g><path style="opacity:1" fill="#575757" d="M 112.5,181.5 C 114.527,181.338 116.527,181.505 118.5,182C 117.207,182.49 115.873,182.657 114.5,182.5C 114.5,185.5 114.5,188.5 114.5,191.5C 116.199,191.34 117.866,191.506 119.5,192C 117.19,192.497 114.857,192.663 112.5,192.5C 112.5,188.833 112.5,185.167 112.5,181.5 Z"/></g>
</svg>
