<?xml version="1.0" standalone="yes"?>
<svg xmlns="http://www.w3.org/2000/svg" width="213" height="229">
<path style="fill:#fffefe; stroke:none;" d="M0 0L0 229L213 229L213 0L0 0z"/>
<path style="fill:#b49e9d; stroke:none;" d="M59 14L60 15L59 14z"/>
<path style="fill:#281214; stroke:none;" d="M42 27C43.4162 26.5279 43.8137 26.1863 45 25L44 29L41 28C38.9047 34.6097 40.9039 41.8037 38.8958 48C37.0451 53.711 32.134 58.2492 30 64L32 63L31 68L28 67L29 72C27.9774 70.4661 28.1954 70.5977 27 70C25.8989 73.9183 24.6593 77.8872 25.3326 82C27.167 93.2053 38.1318 99.9264 49 97.4715C64.4087 93.9908 77.4843 82.4836 85 69C75.082 77.0224 68.6571 87.3032 56 92L56 90C51.6647 91.2393 47.5041 93.8129 43 94.3881C36.0478 95.276 30.0044 88.7124 30.1373 82C30.3226 72.6445 37.4884 64.7185 40 56L43 56C49.1011 68.8043 63.653 65.0313 75 65C66.8254 61.5698 57.7661 65.9432 50.0432 59.6057C36.9133 48.8311 59.5737 31.0681 70 28L69 34C74.9175 30.5313 71.5372 23.8906 64.9992 25.6644C56.1707 28.0595 49.1799 36.8201 43 43C43.3241 27.7863 58.2965 13.4633 74 17.5579C81.2022 19.4358 85.7873 25.329 90 31C90.8216 25.332 84.3433 20.7676 80 18.1188C66.8466 10.0973 50.6504 14.8228 42 27z"/>
<path style="fill:#862327; stroke:none;" d="M70 14L71 15L70 14z"/>
<path style="fill:#b49e9d; stroke:none;" d="M71 14L72 15L71 14M56 15L57 16L56 15M74.6667 15.3333C74.2222 15.7778 75.2778 15.7222 75.3333 15.6667C75.7778 15.2222 74.7222 15.2778 74.6667 15.3333M53.6667 16.3333C53.2222 16.7778 54.2778 16.7222 54.3333 16.6667C54.7778 16.2222 53.7222 16.2778 53.6667 16.3333M77 16L78 17L77 16M52 17L53 18L52 17z"/>
<path style="fill:#862327; stroke:none;" d="M61 17L62 18L61 17z"/>
<path style="fill:#b49e9d; stroke:none;" d="M62 17C63.506 17.683 64.3148 17.8259 66 18C64.494 17.317 63.6852 17.1741 62 17z"/>
<path style="fill:#fffefe; stroke:none;" d="M43 42C50.3937 36.7917 55.9131 28.1354 65 25.4614C72.3301 23.3044 73.7565 31.0215 69 35L69 29C58.8714 30.9597 37.5551 49.0125 49.3295 59.4313C56.7931 66.0357 70.0076 63.001 79 63C66.8517 69.5837 50.3381 66.8457 42 56C36.4429 62.3959 30.6569 73.3335 30.463 82C30.2967 89.4298 35.6571 94.4151 43 93.8117C62.1671 92.2367 82.2817 70.4639 87.6752 53C90.0834 45.2023 89.1637 37.9094 90 30C85.8333 26.4699 83.2765 21.6393 78 19.3935C60.9398 12.1326 45.177 25.1568 43 42z"/>
<path style="fill:#b49e9d; stroke:none;" d="M70 17C71.506 17.683 72.3148 17.8259 74 18C72.494 17.317 71.6852 17.1741 70 17z"/>
<path style="fill:#862327; stroke:none;" d="M74 17L75 18L74 17z"/>
<path style="fill:#b49e9d; stroke:none;" d="M79 17L80 18L79 17M50 18L51 19L50 18M59 18L60 19L59 18M75.6667 18.3333C75.2222 18.7778 76.2778 18.7222 76.3333 18.6667C76.7778 18.2222 75.7222 18.2778 75.6667 18.3333z"/>
<path style="fill:#862327; stroke:none;" d="M77 18L78 19L77 18M80 18L81 19L80 18z"/>
<path style="fill:#b49e9d; stroke:none;" d="M81 18L82 19L81 18z"/>
<path style="fill:#862327; stroke:none;" d="M49 19L50 20L49 19z"/>
<path style="fill:#b49e9d; stroke:none;" d="M57 19L58 20L57 19M82 19L83 20L82 19M47 20L48 21L47 20M80 20L81 21L80 20M83 20L84 21L83 20M46 21L47 22L46 21z"/>
<path style="fill:#862327; stroke:none;" d="M54 21L55 22L54 21z"/>
<path style="fill:#b49e9d; stroke:none;" d="M81 21L82 22L81 21z"/>
<path style="fill:#862327; stroke:none;" d="M84 21L85 22L84 21z"/>
<path style="fill:#b49e9d; stroke:none;" d="M45 22L46 23L45 22M53 22L54 23L53 22z"/>
<path style="fill:#862327; stroke:none;" d="M83 22L84 23L83 22z"/>
<path style="fill:#b49e9d; stroke:none;" d="M86 22L87 23L86 22M44 23L45 24L44 23z"/>
<path style="fill:#862327; stroke:none;" d="M46.6667 23.3333C46.2223 23.7777 47.2778 23.7222 47.3333 23.6667C47.7778 23.2222 46.7222 23.2778 46.6667 23.3333z"/>
<path style="fill:#b49e9d; stroke:none;" d="M52 23L53 24L52 23M84 23L85 24L84 23M43 24L44 25L43 24z"/>
<path style="fill:#862327; stroke:none;" d="M50 24L51 25L50 24z"/>
<path style="fill:#b49e9d; stroke:none;" d="M51 24L52 25L51 24M66 24C67.2484 24.6848 67.5484 24.7488 69 25C67.7517 24.3152 67.4515 24.2512 66 24M85 24L86 25L85 24M42 25L43 26L42 25M44 25C43.0143 26.4785 43 26.2032 43 28C44.2892 26.5574 44.4009 26.7663 44 25M64 25L65 26L64 25M70 25L71 26L70 25M88 25L89 26L88 25M41 26L42 27L41 26M62 26L63 27L62 26M86 26L87 27L86 26M89 26L90 27L89 26z"/>
<path style="fill:#862327; stroke:none;" d="M41 27C42.2228 28.1952 42.42 28.3164 44 29C42.7772 27.8048 42.58 27.6836 41 27z"/>
<path style="fill:#b49e9d; stroke:none;" d="M60 27L61 28L60 27M72 27L73 28L72 27M40 28L41 29L40 28M47 28L48 29L47 28M58 28L59 29L58 28z"/>
<path style="fill:#862327; stroke:none;" d="M59 28L60 29L59 28z"/>
<path style="fill:#b49e9d; stroke:none;" d="M67 28L69 32C69.5576 29.6918 68.9964 29.2436 67 28z"/>
<path style="fill:#862327; stroke:none;" d="M69 28L70 29L69 28z"/>
<path style="fill:#b49e9d; stroke:none;" d="M87 28L88 29L87 28M90 28L91 29L90 28z"/>
<path style="fill:#862327; stroke:none;" d="M40 29L41 30L40 29z"/>
<path style="fill:#b49e9d; stroke:none;" d="M46 29L47 30L46 29M57 29L58 30L57 29M65 29L66 30L65 29z"/>
<path style="fill:#862327; stroke:none;" d="M88.6667 29.3333C88.2222 29.7778 89.2778 29.7222 89.3333 29.6667C89.7778 29.2222 88.7222 29.2778 88.6667 29.3333z"/>
<path style="fill:#b49e9d; stroke:none;" d="M55 30L56 31L55 30z"/>
<path style="fill:#862327; stroke:none;" d="M56 30L57 31L56 30M63 30L64 31L63 30z"/>
<path style="fill:#b49e9d; stroke:none;" d="M91 30L92 31L91 30M39 31L40 32L39 31M45 31L46 32L45 31M54 31L55 32L54 31M62 31L63 32L62 31M72.3333 31.6667C72.2778 31.7222 72.2222 32.7778 72.6667 32.3333C72.7223 32.2777 72.7777 31.2223 72.3333 31.6667z"/>
<path style="fill:#862327; stroke:none;" d="M90 31L90 33C91.6351 32.455 91.455 32.6351 92 31L90 31M39 32L40 33L39 32z"/>
<path style="fill:#b49e9d; stroke:none;" d="M53 32L54 33L53 32z"/>
<path style="fill:#862327; stroke:none;" d="M60 32L61 33L60 32z"/>
<path style="fill:#281214; stroke:none;" d="M91 32C88.8581 39.2464 90.3858 46.7159 87.5363 54C82.2787 67.4395 71.6944 75.2172 63 86C77.8921 80.2305 83.7206 64.0398 92 52C91.0064 50.685 91.3579 50.9354 93 50C92.7144 43.9821 93.919 37.4904 91 32z"/>
<path style="fill:#b49e9d; stroke:none;" d="M44 33L45 34L44 33M52 33L53 34L52 33M59 33L60 34L59 33z"/>
<path style="fill:#862327; stroke:none;" d="M71 33L72 34L71 33z"/>
<path style="fill:#b49e9d; stroke:none;" d="M89 33L89 37C89.7102 35.2405 89.7102 34.7595 89 33M92 33L93 34L92 33M51 34L52 35L51 34M58 34L59 35L58 34M69.6667 34.3333C69.2222 34.7778 70.2778 34.7222 70.3333 34.6667C70.7778 34.2222 69.7222 34.2778 69.6667 34.3333z"/>
<path style="fill:#862327; stroke:none;" d="M92.3333 34.6667C92.2779 34.7222 92.2222 35.7778 92.6667 35.3333C92.7222 35.2778 92.7778 34.2222 92.3333 34.6667z"/>
<path style="fill:#b49e9d; stroke:none;" d="M38 35L38 40C38.8299 37.9695 38.8299 37.0305 38 35M50 35L51 36L50 35M57 35L58 36L57 35M43 36L43 39C43.6961 37.4463 43.6961 37.5537 43 36M49 36L50 37L49 36M48 37L49 38L48 37z"/>
<path style="fill:#862327; stroke:none;" d="M54 37L55 38L54 37z"/>
<path style="fill:#b49e9d; stroke:none;" d="M93 37C92.9717 40.4218 92.6245 43.6368 92 47C94.789 44.5629 94.3614 40.2442 93 37M47 38L48 39L47 38M46 39L47 40L46 39M45 40L46 41L45 40M44 41L45 42L44 41M43 42L44 43L43 42M50 42L51 43L50 42M49 43L50 44L49 43z"/>
<path style="fill:#862327; stroke:none;" d="M48 44L49 45L48 44M39 45L40 46L39 45z"/>
<path style="fill:#b49e9d; stroke:none;" d="M48 45L49 46L48 45M89.3333 45.6667C89.2778 45.7222 89.2222 46.7778 89.6667 46.3333C89.7223 46.2777 89.7778 45.2223 89.3333 45.6667M39.3333 46.6667C39.2778 46.7222 39.2222 47.7778 39.6667 47.3333C39.7222 47.2778 39.7778 46.2222 39.3333 46.6667M47 46L48 47L47 46z"/>
<path style="fill:#862327; stroke:none;" d="M89 47L90 48L89 47M39 48L40 49L39 48z"/>
<path style="fill:#b49e9d; stroke:none;" d="M46 48L47 49L46 48M38 49L39 50L38 49M45 49L46 50L45 49z"/>
<path style="fill:#862327; stroke:none;" d="M88 49L88 52C88.6961 50.4463 88.6961 50.5537 88 49M91 50L92 51L91 50z"/>
<path style="fill:#b49e9d; stroke:none;" d="M92 50L93 51L92 50M44 51L45 52L44 51M90.6667 51.3333C90.2222 51.7778 91.2778 51.7222 91.3333 51.6667C91.7778 51.2222 90.7222 51.2778 90.6667 51.3333M36 52L37 53L36 52z"/>
<path style="fill:#862327; stroke:none;" d="M44 52L45 53L44 52z"/>
<path style="fill:#b49e9d; stroke:none;" d="M35 53L36 54L35 53M45 54L46 55L45 54M87 54L88 55L87 54M91 54C91.0313 55.8318 90.9205 55.5587 92 57C91.7488 55.5485 91.6848 55.2483 91 54M34 55L35 56L34 55z"/>
<path style="fill:#862327; stroke:none;" d="M36 55L35 59C36.1456 57.3595 36.393 56.924 36 55z"/>
<path style="fill:#fffefe; stroke:none;" d="M89 55L89 58C89.6961 56.4463 89.6961 56.5537 89 55z"/>
<path style="fill:#b49e9d; stroke:none;" d="M33 56L34 57L33 56z"/>
<path style="fill:#862327; stroke:none;" d="M40 56L41 57L40 56z"/>
<path style="fill:#b49e9d; stroke:none;" d="M42 56L43 57L42 56M46 56L47 57L46 56M86 56L87 57L86 56z"/>
<path style="fill:#281214; stroke:none;" d="M90 56L90 59C90.6961 57.4463 90.6961 57.5537 90 56z"/>
<path style="fill:#b49e9d; stroke:none;" d="M95 56C95 63.4332 93.885 71.8448 96 79C100.483 76.31 96.3145 67.4758 99 63L100 64C98.7772 62.8048 98.58 62.6836 97 62L97 78C95.0531 71.4134 96 63.8395 96 57L102 61C99.9129 58.2433 98.3341 56.932 95 56M112.667 56.3333C112.222 56.7778 113.278 56.7222 113.333 56.6667C113.778 56.2223 112.722 56.2778 112.667 56.3333M124 56C125.506 56.683 126.315 56.8259 128 57C126.494 56.317 125.685 56.1741 124 56M141 58L144 57C142.234 56.5991 142.443 56.7108 141 58M152 56C152 57.7968 152.014 57.5215 153 59C154.593 56.9513 155.501 57.3562 158 58C155.943 56.4181 154.612 56.1744 152 56M170 56C169.869 57.6405 169.631 58.4562 169 60C170.608 58.5502 171.064 57.9485 172 56L170 56M40 57L41 58L40 57M47 57L48 58L47 57M85 57L86 58L85 57M88 57L89 58L88 57z"/>
<path style="fill:#281214; stroke:none;" d="M96 57L96 78C98.0872 73.026 97 66.3619 97 61C102.659 66.9131 107.335 74.2062 114 79L114 57L112 57L112 72C106.918 66.8752 102.633 60.095 96 57z"/>
<path style="fill:#862327; stroke:none;" d="M124 57L125 58L124 57z"/>
<path style="fill:#281214; stroke:none;" d="M125 57C127.931 64.7325 132.97 69.2832 133 78L136 78C136.006 69.043 139.42 64.4225 144 57C139.588 59.4142 137.229 64.212 134 68C132.502 64.0466 130.051 60.6853 128 57L125 57M153 57C154.762 60.093 159.039 64.24 158.629 68C158.228 71.6769 154.031 75.0814 152 78C155.986 75.9816 158.497 72.6584 161 69C164.356 72.8751 166.674 77.1407 172 78C170.108 74.6794 165.077 70.0039 165.502 66C165.844 62.7841 169.275 59.6116 171 57C167.619 58.9436 165.62 61.4735 164 65L162 65C159.894 60.7874 157.818 57.7773 153 57z"/>
<path style="fill:#b49e9d; stroke:none;" d="M32 58L33 59L32 58M34 58L32 63C33.6927 61.2182 34.375 60.419 34 58z"/>
<path style="fill:#862327; stroke:none;" d="M39 58L40 59L39 58z"/>
<path style="fill:#b49e9d; stroke:none;" d="M43 58L44 59L43 58z"/>
<path style="fill:#862327; stroke:none;" d="M85 58L86 59L85 58M89 58L90 59L89 58z"/>
<path style="fill:#b49e9d; stroke:none;" d="M124 58L125 59L124 58M128 58L129 59L128 58z"/>
<path style="fill:#862327; stroke:none;" d="M168 58L169 59L168 58M33 59L34 60L33 59z"/>
<path style="fill:#b49e9d; stroke:none;" d="M39 59L40 60L39 59M44 59L45 60L44 59M125 59L126 60L125 59M129 59L130 60L129 59M140 59L141 60L140 59M142 59L143 60L142 59z"/>
<path style="fill:#862327; stroke:none;" d="M154 59L155 60L154 59z"/>
<path style="fill:#b49e9d; stroke:none;" d="M158 59L159 60L158 59M167 59L168 60L167 59z"/>
<path style="fill:#862327; stroke:none;" d="M38 60L39 61L38 60z"/>
<path style="fill:#b49e9d; stroke:none;" d="M45 60L46 61L45 60M50 60L51 61L50 60M84 60L85 61L84 60M87 60C87.0282 62.3236 87.1559 62.5972 89 64C88.4892 62.0478 88.2667 61.543 87 60z"/>
<path style="fill:#862327; stroke:none;" d="M126 60L127 61L126 60z"/>
<path style="fill:#b49e9d; stroke:none;" d="M139 60L140 61L139 60z"/>
<path style="fill:#862327; stroke:none;" d="M141 60L142 61L141 60z"/>
<path style="fill:#b49e9d; stroke:none;" d="M159 60L160 61L159 60M166 60L167 61L166 60z"/>
<path style="fill:#862327; stroke:none;" d="M168 60L169 61L168 60z"/>
<path style="fill:#b49e9d; stroke:none;" d="M30 61L31 62L30 61M46 61L47 62L46 61z"/>
<path style="fill:#862327; stroke:none;" d="M97 61L98 62L97 61z"/>
<path style="fill:#b49e9d; stroke:none;" d="M126 61L127 62L126 61z"/>
<path style="fill:#862327; stroke:none;" d="M130 61L131 62L130 61z"/>
<path style="fill:#b49e9d; stroke:none;" d="M155 61L156 62L155 61M160 61L161 62L160 61M165 61L166 62L165 61z"/>
<path style="fill:#862327; stroke:none;" d="M167 61L168 62L167 61M30 62L31 63L30 62z"/>
<path style="fill:#b49e9d; stroke:none;" d="M37 62L38 63L37 62M47 62L48 63L47 62z"/>
<path style="fill:#862327; stroke:none;" d="M48 62L49 63L48 62z"/>
<path style="fill:#b49e9d; stroke:none;" d="M54.6667 62.3333C54.2222 62.7778 55.2778 62.7222 55.3333 62.6667C55.7778 62.2222 54.7222 62.2778 54.6667 62.3333z"/>
<path style="fill:#862327; stroke:none;" d="M83 62L84 63L83 62z"/>
<path style="fill:#b49e9d; stroke:none;" d="M127 62L128 63L127 62M131 62L132 63L131 62M138 62L139 63L138 62M140 62L141 63L140 62M156 62L157 63L156 62M164 62L165 63L164 62M29 63L30 64L29 63M31 63L29 68C30.6927 66.2182 31.375 65.419 31 63M49 63L50 64L49 63M58 63C60.0521 63.8742 61.7472 63.9528 64 64C61.9479 63.1257 60.2528 63.0472 58 63M68 63C71.4725 64.4979 75.3266 64.7959 79 64C75.5676 62.5597 71.7002 63 68 63M82 63L83 64L82 63z"/>
<path style="fill:#862327; stroke:none;" d="M85 63L86 64L85 63z"/>
<path style="fill:#fffefe; stroke:none;" d="M86 63L87 64L86 63z"/>
<path style="fill:#862327; stroke:none;" d="M87 63L88 64L87 63M128 63L129 64L128 63z"/>
<path style="fill:#b49e9d; stroke:none;" d="M137 63L138 64L137 63z"/>
<path style="fill:#862327; stroke:none;" d="M139 63L140 64L139 63z"/>
<path style="fill:#b49e9d; stroke:none;" d="M157 63L158 64L157 63z"/>
<path style="fill:#862327; stroke:none;" d="M161 63L162 64L161 63M29.6667 64.3333C29.2222 64.7778 30.2778 64.7222 30.3333 64.6667C30.7778 64.2222 29.7223 64.2777 29.6667 64.3333z"/>
<path style="fill:#b49e9d; stroke:none;" d="M36 64L37 65L36 64M51 64L52 65L51 64M85 64L87 67C85.5215 66.0143 85.7968 66 84 66C85.1394 67.0154 85.6116 67.3087 87 68C87.1391 65.5471 87.0706 65.3236 85 64z"/>
<path style="fill:#281214; stroke:none;" d="M87 64L88 65L87 64z"/>
<path style="fill:#862327; stroke:none;" d="M100 64L101 65L100 64M132 64L133 65L132 64z"/>
<path style="fill:#b49e9d; stroke:none;" d="M139 64L140 65L139 64z"/>
<path style="fill:#862327; stroke:none;" d="M162.667 64.3333C162.222 64.7778 163.278 64.7222 163.333 64.6667C163.778 64.2222 162.722 64.2777 162.667 64.3333z"/>
<path style="fill:#b49e9d; stroke:none;" d="M165 64L166 65L165 64M28 65L29 66L28 65z"/>
<path style="fill:#281214; stroke:none;" d="M29 65L30 66L29 65z"/>
<path style="fill:#b49e9d; stroke:none;" d="M54 65C55.506 65.683 56.3148 65.8259 58 66C56.4939 65.317 55.6852 65.1741 54 65M66 65C68.0521 65.8742 69.7472 65.9528 72 66C69.9479 65.1258 68.2528 65.0472 66 65M81 65L82 66L81 65z"/>
<path style="fill:#fffefe; stroke:none;" d="M85 65L86 66L85 65z"/>
<path style="fill:#862327; stroke:none;" d="M86 65L87 66L86 65M101 65L102 66L101 65M105 65L106 66L105 65z"/>
<path style="fill:#b49e9d; stroke:none;" d="M129 65L130 66L129 65M133 65L134 66L133 65z"/>
<path style="fill:#862327; stroke:none;" d="M136 65L137 66L136 65z"/>
<path style="fill:#b49e9d; stroke:none;" d="M138 65L139 66L138 65M158 65L159 66L158 65M164 65L165 66L164 65z"/>
<path style="fill:#862327; stroke:none;" d="M28.6667 66.3333C28.2222 66.7778 29.2778 66.7222 29.3333 66.6667C29.7778 66.2222 28.7222 66.2778 28.6667 66.3333z"/>
<path style="fill:#b49e9d; stroke:none;" d="M35 66L36 67L35 66M80 66L81 67L80 66z"/>
<path style="fill:#281214; stroke:none;" d="M86 66L87 67L86 66z"/>
<path style="fill:#b49e9d; stroke:none;" d="M106 66L107 67L106 66M130 66L131 67L130 66M135 66L136 67L135 66z"/>
<path style="fill:#862327; stroke:none;" d="M137 66L138 67L137 66z"/>
<path style="fill:#b49e9d; stroke:none;" d="M159 66L160 67L159 66M27.3333 67.6667C27.2778 67.7222 27.2222 68.7778 27.6667 68.3333C27.7222 68.2778 27.7778 67.2222 27.3333 67.6667z"/>
<path style="fill:#862327; stroke:none;" d="M30 67L31 68L30 67M80 67L81 68L80 67M83 67C84.2228 68.1952 84.42 68.3164 86 69C84.8606 67.9845 84.3885 67.6913 83 67z"/>
<path style="fill:#fffefe; stroke:none;" d="M84 67L85 68L84 67z"/>
<path style="fill:#281214; stroke:none;" d="M85 67L86 68L85 67z"/>
<path style="fill:#b49e9d; stroke:none;" d="M107 67L108 68L107 67z"/>
<path style="fill:#862327; stroke:none;" d="M134 67L135 68L134 67M164 67L165 68L164 67z"/>
<path style="fill:#b49e9d; stroke:none;" d="M34 68L35 69L34 68M79 68L80 69L79 68M82 68C80.8137 69.1863 80.4721 69.5838 80 71C81.5127 70.4289 82.4272 70.1364 84 70C83.4549 68.3648 83.6352 68.5451 82 68z"/>
<path style="fill:#fffefe; stroke:none;" d="M83 68L84 69L83 68z"/>
<path style="fill:#b49e9d; stroke:none;" d="M103 68L104 69L103 68M108 68L109 69L108 68M131 68L132 69L131 68M136 68L137 69L136 68M159 68L160 69L159 68M165 68L166 69L165 68z"/>
<path style="fill:#862327; stroke:none;" d="M27.6667 69.3333C27.2222 69.7778 28.2778 69.7222 28.3333 69.6667C28.7778 69.2222 27.7223 69.2777 27.6667 69.3333z"/>
<path style="fill:#b49e9d; stroke:none;" d="M78 69L79 70L78 69z"/>
<path style="fill:#fffefe; stroke:none;" d="M82 69C74.6164 77.4517 67.3253 85.1724 57 90C64.0054 91.1657 73.5084 81.807 77.8256 76.9961C79.9718 74.6045 82.1627 72.2251 82 69z"/>
<path style="fill:#b49e9d; stroke:none;" d="M104 69L105 70L104 69M109 69L110 70L109 69z"/>
<path style="fill:#862327; stroke:none;" d="M132 69L132 78C133.256 75.0059 133.256 71.9941 132 69z"/>
<path style="fill:#b49e9d; stroke:none;" d="M158 69L159 70L158 69M161 69L162 70L161 69M166 69L167 70L166 69M28 70L29 71L28 70M33 70L34 71L33 70M84 70L85 71L84 70M105 70L106 71L105 70M110 70L111 71L110 70M162 70L163 71L162 70M26 71L27 72L26 71z"/>
<path style="fill:#862327; stroke:none;" d="M28 71L29 72L28 71M79 71L80 72L79 71z"/>
<path style="fill:#b49e9d; stroke:none;" d="M83 71L84 72L83 71M106 71L107 72L106 71z"/>
<path style="fill:#862327; stroke:none;" d="M157 71L158 72L157 71z"/>
<path style="fill:#b49e9d; stroke:none;" d="M159 71L160 72L159 71M163 71L164 72L163 71z"/>
<path style="fill:#862327; stroke:none;" d="M167 71L168 72L167 71M32 72L33 73L32 72M81 72L82 73L81 72M107 72L108 73L107 72z"/>
<path style="fill:#b49e9d; stroke:none;" d="M156 72L157 73L156 72M158 72L159 73L158 72M168 72L169 73L168 72M27 73L28 74L27 73M32 73L33 74L32 73z"/>
<path style="fill:#862327; stroke:none;" d="M75 73L76 74L75 73z"/>
<path style="fill:#b49e9d; stroke:none;" d="M78 73L79 74L78 73M80 73L81 74L80 73M82 73L83 74L82 73M155 73L156 74L155 73M157 73L158 74L157 73M164 73L165 74L164 73M169 73L170 74L169 73M25.3333 74.6667C25.2778 74.7222 25.2222 75.7778 25.6667 75.3333C25.7222 75.2778 25.7778 74.2222 25.3333 74.6667M74 74L75 75L74 74M77 74L78 75L77 74z"/>
<path style="fill:#862327; stroke:none;" d="M81 74L82 75L81 74z"/>
<path style="fill:#b49e9d; stroke:none;" d="M154 74L155 75L154 74z"/>
<path style="fill:#862327; stroke:none;" d="M156 74L157 75L156 74z"/>
<path style="fill:#b49e9d; stroke:none;" d="M165 74L166 75L165 74M170 74L171 75L170 74M31 75L32 76L31 75M73 75L74 76L73 75M76 75L77 76L76 75M81 75L82 76L81 75M153 75L154 76L153 75z"/>
<path style="fill:#862327; stroke:none;" d="M166 75L167 76L166 75M170 75L171 76L170 75z"/>
<path style="fill:#b49e9d; stroke:none;" d="M72 76L73 77L72 76M75 76L76 77L75 76M80 76L81 77L80 76M110 76L111 77L110 76M152 76L153 77L152 76M171 76L172 77L171 76M71 77L72 78L71 77M74 77L75 78L74 77z"/>
<path style="fill:#862327; stroke:none;" d="M77 77L78 78L77 77M79 77L80 78L79 77z"/>
<path style="fill:#b49e9d; stroke:none;" d="M111 77L112 78L111 77M151 77L151 79L153 79C152.455 77.3648 152.635 77.5451 151 77M172 77C170.521 77.9857 170.797 78 169 78C170.522 78.8551 172.945 79.2884 172 77z"/>
<path style="fill:#862327; stroke:none;" d="M30 78L31 79L30 78z"/>
<path style="fill:#b49e9d; stroke:none;" d="M70 78L71 79L70 78M73 78L74 79L73 78M76 78L77 79L76 78z"/>
<path style="fill:#862327; stroke:none;" d="M78 78L79 79L78 78z"/>
<path style="fill:#b49e9d; stroke:none;" d="M112 78L113 79L112 78M132 78C133.506 78.683 134.315 78.8259 136 79C134.494 78.317 133.685 78.1741 132 78M30.3333 79.6667C30.2778 79.7222 30.2222 80.7778 30.6667 80.3333C30.7222 80.2778 30.7778 79.2222 30.3333 79.6667M69 79L70 80L69 79M72 79L73 80L72 79M75 79L76 80L75 79z"/>
<path style="fill:#862327; stroke:none;" d="M77 79L78 80L77 79z"/>
<path style="fill:#b49e9d; stroke:none;" d="M68 80L69 81L68 80z"/>
<path style="fill:#862327; stroke:none;" d="M71 80L72 81L71 80z"/>
<path style="fill:#b49e9d; stroke:none;" d="M74 80L75 81L74 80M67 81L68 82L67 81M70 81L71 82L70 81z"/>
<path style="fill:#862327; stroke:none;" d="M73 81L74 82L73 81z"/>
<path style="fill:#b49e9d; stroke:none;" d="M66 82L67 83L66 82M69 82L70 83L69 82z"/>
<path style="fill:#862327; stroke:none;" d="M25 83L26 84L25 83z"/>
<path style="fill:#b49e9d; stroke:none;" d="M64 83L65 84L64 83M70 83L71 84L70 83M74 83L75 84L74 83M25 84L26 85L25 84M30.3333 84.6667C30.2778 84.7222 30.2222 85.7778 30.6667 85.3333C30.7222 85.2778 30.7778 84.2222 30.3333 84.6667M63 84L64 85L63 84M66 84L67 85L66 84M62 85C62.5451 86.6352 62.3648 86.4549 64 87C63.4549 85.3648 63.6352 85.5451 62 85M65 85L66 86L65 85M67 85L68 86L67 85M26 86L27 87L26 86z"/>
<path style="fill:#862327; stroke:none;" d="M30 86L31 87L30 86z"/>
<path style="fill:#b49e9d; stroke:none;" d="M60 86C58.7233 87.915 58.7233 87.085 60 89C60.7129 87.6521 60.8051 87.2706 60 86z"/>
<path style="fill:#862327; stroke:none;" d="M61 86L61 88C62.6351 87.455 62.455 87.6351 63 86L61 86M66 86L67 87L66 86z"/>
<path style="fill:#b49e9d; stroke:none;" d="M70 86L71 87L70 86z"/>
<path style="fill:#281214; stroke:none;" d="M60 87L61 88L60 87z"/>
<path style="fill:#b49e9d; stroke:none;" d="M69 87L70 88L69 87z"/>
<path style="fill:#862327; stroke:none;" d="M27 88L28 89L27 88z"/>
<path style="fill:#b49e9d; stroke:none;" d="M31 88L32 89L31 88M57 88C57.545 89.6351 57.3648 89.4549 59 90C58.4549 88.3648 58.6352 88.5451 57 88z"/>
<path style="fill:#281214; stroke:none;" d="M58.6667 88.3333C58.2223 88.7778 59.2778 88.7222 59.3333 88.6667C59.7778 88.2222 58.7222 88.2778 58.6667 88.3333z"/>
<path style="fill:#b49e9d; stroke:none;" d="M63 88L64 89L63 88z"/>
<path style="fill:#862327; stroke:none;" d="M67 88L68 89L67 88z"/>
<path style="fill:#b49e9d; stroke:none;" d="M27 89L28 90L27 89M55 89L56 90L55 89z"/>
<path style="fill:#862327; stroke:none;" d="M56.3333 89.6667C56.2777 89.7223 56.2222 90.7778 56.6667 90.3333C56.7222 90.2778 56.7778 89.2222 56.3333 89.6667z"/>
<path style="fill:#281214; stroke:none;" d="M57 89L58 90L57 89z"/>
<path style="fill:#b49e9d; stroke:none;" d="M61 89L62 90L61 89M66 89L67 90L66 89M28 90L29 91L28 90M53 90L54 91L53 90M59 90L60 91L59 90z"/>
<path style="fill:#862327; stroke:none;" d="M60 90L61 91L60 90M64 90L65 91L64 90M29 91L30 92L29 91M33 91L34 92L33 91z"/>
<path style="fill:#b49e9d; stroke:none;" d="M51 91L52 92L51 91M56.6667 91.3333C56.2222 91.7778 57.2778 91.7222 57.3333 91.6667C57.7778 91.2222 56.7222 91.2778 56.6667 91.3333M63 91L64 92L63 91M84 91L84 97C84.9511 94.7147 84.9511 93.2853 84 91z"/>
<path style="fill:#281214; stroke:none;" d="M85 91L85 98L88 93C86.8137 91.8137 86.4162 91.4721 85 91z"/>
<path style="fill:#862327; stroke:none;" d="M86 91L87 92L86 91z"/>
<path style="fill:#b49e9d; stroke:none;" d="M49 92L50 93L49 92M61 92L62 93L61 92z"/>
<path style="fill:#862327; stroke:none;" d="M87 92L88 93L87 92z"/>
<path style="fill:#b49e9d; stroke:none;" d="M102 92C103.506 92.683 104.315 92.8259 106 93C104.494 92.317 103.685 92.1741 102 92z"/>
<path style="fill:#862327; stroke:none;" d="M31 93L32 94L31 93M36 93L37 94L36 93z"/>
<path style="fill:#b49e9d; stroke:none;" d="M37 93L38 94L37 93M45.6667 93.3333C45.2223 93.7778 46.2778 93.7222 46.3333 93.6667C46.7778 93.2222 45.7222 93.2778 45.6667 93.3333z"/>
<path style="fill:#862327; stroke:none;" d="M59 93L60 94L59 93z"/>
<path style="fill:#b49e9d; stroke:none;" d="M60 93L61 94L60 93M88 93L89 94L88 93M98 93L99 94L98 93z"/>
<path style="fill:#862327; stroke:none;" d="M89 96C88.0198 94.2167 88.0924 94.4057 86 94L86 98C82.6181 98.6204 80.0141 101.255 77 103C76.3309 106.562 72.6761 107.105 69.9954 109.287C64.5347 113.731 59.4667 119.251 55.4167 125C52.8444 128.651 48.7991 134.359 55 136C60.5904 123.773 71.0444 113.627 82 106C80.4691 115.006 75.3414 123.051 74 132L79 132C79.6033 128.38 82.4449 125.331 83 122L82 120C82 117.437 83.4708 114.912 85 113L86 114C86.4651 110.398 86.8344 106.174 88.8573 103.055C92.912 96.8022 102.279 96.0185 109 96C104.716 90.0598 94.8325 94.3571 89 96z"/>
<path style="fill:#b49e9d; stroke:none;" d="M108 93L109 94L108 93M32 94L33 95L32 94z"/>
<path style="fill:#862327; stroke:none;" d="M39 94C40.7691 94.7789 42.0359 94.9124 44 95C42.231 94.2211 40.9641 94.0876 39 94z"/>
<path style="fill:#b49e9d; stroke:none;" d="M57 94L58 95L57 94M93.6667 94.3333C93.2222 94.7778 94.2778 94.7222 94.3333 94.6667C94.7778 94.2222 93.7222 94.2778 93.6667 94.3333z"/>
<path style="fill:#281214; stroke:none;" d="M108 94C109.223 95.1951 109.42 95.3165 111 96C109.777 94.8048 109.58 94.6836 108 94z"/>
<path style="fill:#862327; stroke:none;" d="M110 94L111 95L110 94z"/>
<path style="fill:#b49e9d; stroke:none;" d="M33 95L34 96L33 95z"/>
<path style="fill:#862327; stroke:none;" d="M34 95L35 96L34 95M54 95L55 96L54 95z"/>
<path style="fill:#b49e9d; stroke:none;" d="M55 95L56 96L55 95M89.6667 95.3333C89.2222 95.7778 90.2778 95.7222 90.3333 95.6667C90.7777 95.2222 89.7222 95.2778 89.6667 95.3333z"/>
<path style="fill:#862327; stroke:none;" d="M111 95C114.405 106.214 105.783 115.679 97 122L97 126C95.9774 124.466 96.1954 124.598 95 124L92 130C96.8773 129.38 100.382 127.35 103.871 123.829C106.326 121.353 107.615 118.107 111 117C114.312 109.035 119.003 101.702 111 95z"/>
<path style="fill:#b49e9d; stroke:none;" d="M112 95L113 96L112 95M35 96L36 97L35 96z"/>
<path style="fill:#862327; stroke:none;" d="M36 96L37 97L36 96z"/>
<path style="fill:#b49e9d; stroke:none;" d="M52.6667 96.3333C52.2222 96.7778 53.2778 96.7222 53.3333 96.6667C53.7778 96.2222 52.7222 96.2778 52.6667 96.3333z"/>
<path style="fill:#fffefe; stroke:none;" d="M77 136L81 135L77 138C79.9133 137.916 82.3435 136.23 85 135C83.3407 134.594 82.7582 134.691 81 135C91.3371 127.405 107.357 118.15 111.06 105C114.723 91.992 95.069 95.0017 89.8573 101.475C87.6333 104.237 87.44 108.713 86.304 112C83.5062 120.097 80.0972 128.015 77 136z"/>
<path style="fill:#b49e9d; stroke:none;" d="M110 96L111 97L110 96M113 96L114 97L113 96M38 97L39 98L38 97M49.6667 97.3333C49.2222 97.7778 50.2778 97.7222 50.3333 97.6667C50.7778 97.2222 49.7222 97.2778 49.6667 97.3333M97 97L98 98L97 97M111 97L112 98L111 97M83 98L84 99L83 98M112 98L112 103C112.83 100.97 112.83 100.03 112 98M114 98L115 99L114 98M82 99L83 100L82 99M91.6667 99.3333C91.2222 99.7778 92.2778 99.7222 92.3333 99.6667C92.7777 99.2223 91.7222 99.2777 91.6667 99.3333M115 99L116 100L115 99M81 100L82 101L81 100M79 101L80 102L79 101M78 102L79 103L78 102M88.3333 102.667C88.2778 102.722 88.2223 103.778 88.6667 103.333C88.7222 103.278 88.7778 102.222 88.3333 102.667M111 103L111 106C111.696 104.446 111.696 104.554 111 103M75 104L74 106C75.2627 105.029 75.3919 105.306 75 104z"/>
<path style="fill:#281214; stroke:none;" d="M75 107C76.4566 105.897 76.8966 105.457 78 104C75.8764 104.899 75.8993 104.876 75 107z"/>
<path style="fill:#b49e9d; stroke:none;" d="M87 105L87 109C87.7102 107.241 87.7102 106.759 87 105M73 106L74 107L73 106M80 106L81 107L80 106M115.333 106.667C115.278 106.722 115.222 107.778 115.667 107.333C115.722 107.278 115.778 106.222 115.333 106.667M72 107L73 108L72 107M79 107L80 108L79 107M110 107L111 108L110 107M78 108L79 109L78 108M81.3333 108.667C81.2778 108.722 81.2222 109.778 81.6667 109.333C81.7222 109.278 81.7778 108.222 81.3333 108.667M69 109L70 110L69 109M77 109L78 110L77 109M114 109L115 110L114 109M68 110L69 111L68 110M86.3333 110.667C86.2778 110.722 86.2222 111.778 86.6667 111.333C86.7222 111.278 86.7778 110.222 86.3333 110.667M108 110L109 111L108 110M67 111L68 112L67 111M80 111L81 112L80 111M113 111L114 112L113 111M66 112L67 113L66 112M73 112L74 113L73 112M65 113L66 114L65 113M72 113L73 114L72 113z"/>
<path style="fill:#281214; stroke:none;" d="M84 113C83.0095 115.706 82.2874 118.132 82 121C83.8954 118.453 84.9156 116.1 84 113z"/>
<path style="fill:#b49e9d; stroke:none;" d="M106 113L107 114L106 113M112 113L113 114L112 113M64 114L65 115L64 114M71 114L72 115L71 114M79.3333 114.667C79.2778 114.722 79.2222 115.778 79.6667 115.333C79.7222 115.278 79.7778 114.222 79.3333 114.667M85 114L86 115L85 114M105 114L106 115L105 114M63 115L64 116L63 115M70 115L71 116L70 115M104 115L105 116L104 115M111 115L112 116L111 115M62 116L63 117L62 116M69 116L70 117L69 116M84 116L85 117L84 116z"/>
<path style="fill:#281214; stroke:none;" d="M109 116C108.043 117.517 107.613 118.339 107 120C108.63 118.485 109.163 118.145 109 116z"/>
<path style="fill:#b49e9d; stroke:none;" d="M61 117L62 118L61 117M68 117L69 118L68 117M102 117L103 118L102 117M60 118L61 119L60 118M67 118L68 119L67 118M78 118L79 119L78 118M101 118L102 119L101 118M59 119L60 120L59 119M66 119L67 120L66 119M83 119L84 120L83 119M108 119L109 120L108 119M140 119C141.248 119.685 141.548 119.749 143 120C141.752 119.315 141.452 119.251 140 119M65 120L66 121L65 120M99 120L100 121L99 120M107 120L108 121L107 120M138 120C136.814 121.186 136.472 121.584 136 123C137.548 121.738 137.808 121.806 138 120z"/>
<path style="fill:#862327; stroke:none;" d="M130 137C129.782 138.686 129.776 139.316 130 141C133.345 133.616 134.896 128.019 142 123L142 121L141 120C136.435 121.949 124.405 131.652 130 137z"/>
<path style="fill:#281214; stroke:none;" d="M141 120C142.653 121.513 143.894 122.181 146 123C144.554 120.717 143.689 120.418 141 120z"/>
<path style="fill:#b49e9d; stroke:none;" d="M145 120L146 121L145 120M64 121L65 122L64 121M77 121L78 122L77 121M98 121L99 122L98 121M106 121L107 122L106 121M146 121L147 122L146 121M57 122L58 123L57 122M63 122L64 123L63 122M105 122L106 123L105 122M142 122L143 123L142 122M144 122L145 123L144 122z"/>
<path style="fill:#862327; stroke:none;" d="M146.333 122.667C146.278 122.722 146.222 123.778 146.667 123.333C146.722 123.278 146.778 122.222 146.333 122.667z"/>
<path style="fill:#b49e9d; stroke:none;" d="M154 122L155 123L154 122z"/>
<path style="fill:#862327; stroke:none;" d="M150 150L150 147C145.387 143.974 147.926 138.356 152 136C151.727 131.202 153.876 128.485 157 125C156.364 128.518 155.015 131.067 153 134C156.71 133.826 158.595 131.92 158.872 128.001C159.045 125.547 158.296 122.003 155.035 122.89C152.279 123.64 150.469 126.753 149.069 129.004C145.153 135.295 139.96 147.087 150 150z"/>
<path style="fill:#b49e9d; stroke:none;" d="M56 123L57 124L56 123M62 123L63 124L62 123M76 123L77 124L76 123M96 123L96 126L98 125C97.4549 123.365 97.6352 123.545 96 123M104 123L105 124L104 123M119 123L118 125C119.263 124.029 119.392 124.306 119 123z"/>
<path style="fill:#862327; stroke:none;" d="M120.667 123.333C120.222 123.778 121.278 123.722 121.333 123.667C121.778 123.222 120.722 123.278 120.667 123.333z"/>
<path style="fill:#b49e9d; stroke:none;" d="M122 123L123 124L122 123M140 123L141 124L140 123M145 123L146 124L145 123M152 123L153 124L152 123M55 124L56 125L55 124M81 124L82 125L81 124z"/>
<path style="fill:#281214; stroke:none;" d="M119 126C121.58 126.027 122.138 126.229 124 128C124.82 124.352 121.195 123.524 119 126z"/>
<path style="fill:#b49e9d; stroke:none;" d="M139 124L140 125L139 124M151.333 124.667C151.278 124.722 151.222 125.778 151.667 125.333C151.722 125.278 151.778 124.222 151.333 124.667M159 124L159 130C159.951 127.715 159.951 126.285 159 124M75 125L76 126L75 125M93 125L94 126L93 125z"/>
<path style="fill:#862327; stroke:none;" d="M118 125C113.965 130.16 110.496 133.031 111 140L110 138C109.126 140.052 109.047 141.747 109 144C110.65 142.762 110.333 141.334 111 144C113.185 139.572 114.227 135.486 118 132C119.385 138.181 119.858 141.645 113 144C113.65 145.3 113.147 145 115 145C113.521 145.986 113.797 146 112 146C118.979 148.689 122.35 140.637 127 137C124.645 130.982 125.893 125.889 118 125z"/>
<path style="fill:#b49e9d; stroke:none;" d="M133 125L134 126L133 125M138 125L139 126L138 125M156 125L157 126L156 125M54 126L55 127L54 126M60 126L61 127L60 126M92 126C89.4563 128.179 87.59 130.055 86 133C83.7523 132.954 83.1041 133.124 81 134C83.797 134.639 86.2371 133.772 89 133L88 130C90.409 129.247 92.0758 128.603 94 127L92 126M100 126L101 127L100 126M117 126L118 127L117 126z"/>
<path style="fill:#fffefe; stroke:none;" d="M122 126L123 127L122 126z"/>
<path style="fill:#b49e9d; stroke:none;" d="M125 126L125 129C125.696 127.446 125.696 127.554 125 126M132 126L133 127L132 126M137 126L138 127L137 126M150 126L151 127L150 126z"/>
<path style="fill:#fffefe; stroke:none;" d="M155 126C153.687 128.36 152.659 130.391 152 133C155.17 131.297 156.09 129.455 157 126L155 126z"/>
<path style="fill:#b49e9d; stroke:none;" d="M53 127L54 128L53 127M59 127L60 128L59 127M80 127L81 128L80 127M99 127L100 128L99 127M116 127L117 128L116 127M131 127L132 128L131 127M136 127L137 128L136 127M154 127L155 128L154 127M74 128L75 129L74 128M98 128L99 129L98 128M135 128L136 129L135 128M149 128L150 129L149 128M153 128L154 129L153 128M156 128L157 129L156 128M52 129L53 130L52 129z"/>
<path style="fill:#281214; stroke:none;" d="M57.3333 129.667C57.2778 129.722 57.2222 130.778 57.6667 130.333C57.7222 130.278 57.7778 129.222 57.3333 129.667z"/>
<path style="fill:#b49e9d; stroke:none;" d="M58 129L59 130L58 129M79 129L80 130L79 129z"/>
<path style="fill:#862327; stroke:none;" d="M89 129L88 131C89.2627 130.029 89.3919 130.306 89 129z"/>
<path style="fill:#fffefe; stroke:none;" d="M88 132C89.9486 131.064 90.5502 130.608 92 129C90.0515 129.936 89.4498 130.392 88 132z"/>
<path style="fill:#281214; stroke:none;" d="M76 140C82.0733 141.665 92.146 134.08 95 129C88.2807 131.785 82.3795 136.495 76 140z"/>
<path style="fill:#b49e9d; stroke:none;" d="M120 129L121 130L120 129M134 129L135 130L134 129M73 130L73 134C73.7102 132.241 73.7102 131.759 73 130M91 130L92 131L91 130M95 130L96 131L95 130z"/>
<path style="fill:#fffefe; stroke:none;" d="M120 130L121 131L120 130z"/>
<path style="fill:#b49e9d; stroke:none;" d="M122 130C122.545 131.635 122.365 131.455 124 132L124 130L122 130z"/>
<path style="fill:#281214; stroke:none;" d="M124 130L124 134C124.71 132.241 124.71 131.759 124 130z"/>
<path style="fill:#b49e9d; stroke:none;" d="M51 131L52 132L51 131M57 131L58 132L57 131z"/>
<path style="fill:#281214; stroke:none;" d="M77 131C75.2575 132.111 74.8807 132.27 74 134L78 134C77.7488 132.548 77.6848 132.248 77 131z"/>
<path style="fill:#862327; stroke:none;" d="M86 131L87 132L86 131z"/>
<path style="fill:#b49e9d; stroke:none;" d="M90 131L91 132L90 131M94 131L95 132L94 131M112 131L113 132L112 131z"/>
<path style="fill:#fffefe; stroke:none;" d="M122 131L121 135C122.656 133.596 122.751 133.046 122 131z"/>
<path style="fill:#b49e9d; stroke:none;" d="M133 131L134 132L133 131M147 131L148 132L147 131M158 131L159 132L158 131M78 132L79 133L78 132z"/>
<path style="fill:#862327; stroke:none;" d="M85 132L86 133L85 132M92 132L93 133L92 132z"/>
<path style="fill:#b49e9d; stroke:none;" d="M111 132L112 133L111 132M116.667 132.333C116.222 132.778 117.278 132.722 117.333 132.667C117.778 132.222 116.722 132.278 116.667 132.333M151 132C151.674 134.297 151.965 134.774 154 136C152.981 134.369 152.474 133.12 151 132M154 132L155 133L154 132M56 133L57 134L56 133z"/>
<path style="fill:#862327; stroke:none;" d="M73 134C74.3697 134.582 75.5065 134.797 77 135L77 133L73 134M90 133L89 135C90.2627 134.029 90.3919 134.306 90 133z"/>
<path style="fill:#b49e9d; stroke:none;" d="M91 133L92 134L91 133z"/>
<path style="fill:#fffefe; stroke:none;" d="M116 133C114.272 136.702 113.19 139.902 113 144C116.973 142.638 119.036 140.697 121 137C119.392 135.55 118.936 134.949 118 133L116 133z"/>
<path style="fill:#b49e9d; stroke:none;" d="M120.333 133.667C120.278 133.722 120.222 134.778 120.667 134.333C120.722 134.278 120.778 133.222 120.333 133.667M128 133L129 134L128 133M132 133L133 134L132 133M146 133L147 134L146 133M55 134L56 135L55 134M75 134C74.0143 135.479 74 135.203 74 137C76.4562 136.819 78.6314 136.68 81 136L75 134M77 134L78 135L77 134M90 134L91 135L90 134M110 134L111 135L110 134M115 134L116 135L115 134M125 134C125.902 135.923 126.076 135.999 128 137C127.098 135.077 126.924 135.001 125 134z"/>
<path style="fill:#281214; stroke:none;" d="M152.667 134.333C152.222 134.778 153.278 134.722 153.333 134.667C153.778 134.222 152.722 134.278 152.667 134.333z"/>
<path style="fill:#b49e9d; stroke:none;" d="M155 134L156 135L155 134M51 135L52 136L51 135z"/>
<path style="fill:#281214; stroke:none;" d="M72 135C70.7772 136.195 70.58 136.316 69 137C71.6122 137.873 72.5467 137.276 74 135L72 135z"/>
<path style="fill:#b49e9d; stroke:none;" d="M83 135L84 136L83 135z"/>
<path style="fill:#862327; stroke:none;" d="M84 135L85 136L84 135z"/>
<path style="fill:#b49e9d; stroke:none;" d="M88 135L89 136L88 135M114 135L115 136L114 135M118 135L119 136L118 135M131 135L132 136L131 135M145.333 135.667C145.278 135.722 145.222 136.778 145.667 136.333C145.722 136.278 145.778 135.222 145.333 135.667z"/>
<path style="fill:#862327; stroke:none;" d="M163.333 135.667C163.278 135.722 163.222 136.778 163.667 136.333C163.722 136.278 163.778 135.222 163.333 135.667z"/>
<path style="fill:#b49e9d; stroke:none;" d="M68 136L69 137L68 136z"/>
<path style="fill:#862327; stroke:none;" d="M69 136L70 137L69 136z"/>
<path style="fill:#b49e9d; stroke:none;" d="M70.6667 136.333C70.2222 136.778 71.2778 136.722 71.3333 136.667C71.7778 136.222 70.7222 136.278 70.6667 136.333z"/>
<path style="fill:#862327; stroke:none;" d="M75 136C75.9802 137.783 75.9076 137.594 78 138C76.8607 136.985 76.3884 136.691 75 136z"/>
<path style="fill:#b49e9d; stroke:none;" d="M81 136L82 137L81 136z"/>
<path style="fill:#862327; stroke:none;" d="M86 136L87 137L86 136z"/>
<path style="fill:#b49e9d; stroke:none;" d="M109.333 136.667C109.278 136.722 109.222 137.778 109.667 137.333C109.722 137.278 109.778 136.222 109.333 136.667z"/>
<path style="fill:#281214; stroke:none;" d="M110 136L110 140C110.71 138.241 110.71 137.759 110 136z"/>
<path style="fill:#b49e9d; stroke:none;" d="M119 136L120 137L119 136M149 136L150 137L149 136z"/>
<path style="fill:#281214; stroke:none;" d="M162 136C160.652 137.768 159.878 138.982 159 141C161.015 139.356 162.098 138.587 162 136z"/>
<path style="fill:#862327; stroke:none;" d="M68 137C67.1691 147.186 66.1629 153.613 70.7292 163.17C72.7014 167.297 74.0629 170.78 79 171C73.2485 162.184 65.7975 149.532 77 142L74 137C71.7683 137.363 70.2317 137.363 68 137z"/>
<path style="fill:#fffefe; stroke:none;" d="M74 137L75 138L74 137z"/>
<path style="fill:#b49e9d; stroke:none;" d="M80 137L81 138L80 137M85 137L86 138L85 137M113.333 137.667C113.278 137.722 113.222 138.778 113.667 138.333C113.722 138.278 113.778 137.222 113.333 137.667M125 137L126 138L125 137M128.333 137.667C128.278 137.722 128.222 138.778 128.667 138.333C128.722 138.278 128.778 137.222 128.333 137.667z"/>
<path style="fill:#281214; stroke:none;" d="M129.333 137.667C129.278 137.722 129.222 138.778 129.667 138.333C129.722 138.278 129.778 137.222 129.333 137.667z"/>
<path style="fill:#b49e9d; stroke:none;" d="M74 138C75.543 139.267 76.0478 139.489 78 140C76.4569 138.733 75.9522 138.511 74 138M78 138L79 139L78 138M83 138L84 139L83 138M120 138L121 139L120 138M124 138L125 139L124 138M144 138L145 139L144 138M148 138L149 139L148 138M159 138L160 139L159 138M162 138L163 139L162 138M67 139L67 142C67.6961 140.446 67.6961 140.554 67 139M81 139L82 140L81 139M112 139L112 144C112.83 141.97 112.83 141.03 112 139M123 139L124 140L123 139M131 139L132 140L131 139M161 139L162 140L161 139M79.6667 140.333C79.2222 140.778 80.2778 140.722 80.3333 140.667C80.7778 140.222 79.7222 140.278 79.6667 140.333M119 140L120 141L119 140z"/>
<path style="fill:#281214; stroke:none;" d="M131 140C132.464 141.968 133.606 142.352 136 143C134.347 141.487 133.106 140.819 131 140z"/>
<path style="fill:#862327; stroke:none;" d="M132 140L133 141L132 140z"/>
<path style="fill:#b49e9d; stroke:none;" d="M133.667 140.333C133.222 140.778 134.278 140.722 134.333 140.667C134.778 140.222 133.722 140.278 133.667 140.333M157 140L158 141L157 140z"/>
<path style="fill:#862327; stroke:none;" d="M158 140L154 145C155.479 145.986 155.203 146 157 146L160 141L158 140M160 140L161 141L160 140z"/>
<path style="fill:#b49e9d; stroke:none;" d="M77.6667 141.333C77.2222 141.778 78.2778 141.722 78.3333 141.667C78.7778 141.222 77.7222 141.278 77.6667 141.333M118 141L119 142L118 141M122 141L123 142L122 141M130 141C128.814 142.186 128.472 142.584 128 144C129.548 142.738 129.808 142.806 130 141M135 141C136.248 141.685 136.548 141.749 138 142C136.752 141.315 136.452 141.251 135 141M147 141L147 144C147.696 142.446 147.696 142.554 147 141M106 142L106 152C107.422 148.702 107.973 145.057 106 142z"/>
<path style="fill:#281214; stroke:none;" d="M110 142C110.968 144.964 111.934 145.503 115 146L110 142z"/>
<path style="fill:#b49e9d; stroke:none;" d="M117 142L118 143L117 142z"/>
<path style="fill:#862327; stroke:none;" d="M129 145L134 143C131.415 142.107 130.549 142.825 129 145M135 143C133.396 148.571 126.508 152.269 121 151C121.202 152.85 121.202 154.15 121 156C128.885 155.815 133.826 151.435 140 147L139 142L135 143z"/>
<path style="fill:#b49e9d; stroke:none;" d="M139 142L140 143L139 142M159 142L160 143L159 142M74 143L75 144L74 143M115 143L116 144L115 143z"/>
<path style="fill:#281214; stroke:none;" d="M129 143L130 144L129 143z"/>
<path style="fill:#fffefe; stroke:none;" d="M124 152C128.865 150.386 132.734 147.647 135 143C129.573 143.844 126.91 147.605 124 152z"/>
<path style="fill:#281214; stroke:none;" d="M139 143L139 146L141 145C140.455 143.365 140.635 143.545 139 143z"/>
<path style="fill:#862327; stroke:none;" d="M140 143L141 144L140 143z"/>
<path style="fill:#b49e9d; stroke:none;" d="M158 143L159 144L158 143M64 144L65 145L64 144M72.3333 144.667C72.2778 144.722 72.2223 145.778 72.6667 145.333C72.7222 145.278 72.7778 144.222 72.3333 144.667M120 144L121 145L120 144z"/>
<path style="fill:#281214; stroke:none;" d="M127 144L127 146L129 146L129 144L127 144z"/>
<path style="fill:#b49e9d; stroke:none;" d="M135 144L136 145L135 144M153 144L152 146C153.263 145.029 153.392 145.306 153 144M157 144L158 145L157 144M66 145L67 146L66 145z"/>
<path style="fill:#862327; stroke:none;" d="M107 145C106.705 159.3 96.9382 171.682 82 172L84 176C93.3713 174.637 109.482 171.273 107 158C110.42 155.011 109.365 148.462 107 145z"/>
<path style="fill:#b49e9d; stroke:none;" d="M110 145L111 146L110 145M119 145L120 146L119 145z"/>
<path style="fill:#862327; stroke:none;" d="M126 145L125 149C126.457 147.897 126.897 147.457 128 146L126 145z"/>
<path style="fill:#b49e9d; stroke:none;" d="M134 145L135 146L134 145M140 145L141 146L140 145M147.333 145.667C147.278 145.722 147.222 146.778 147.667 146.333C147.722 146.278 147.778 145.222 147.333 145.667z"/>
<path style="fill:#281214; stroke:none;" d="M149 148C151.97 148.698 153.421 147.511 155 145C152.778 145.81 151.01 146.739 149 148z"/>
<path style="fill:#b49e9d; stroke:none;" d="M63 146L66 150C66.6147 147.346 65.4669 146.791 63 146M71 146L72 147L71 146M108 146L109 147L108 146M111 146L112 147L111 146M117 146L118 147L117 146M133 146L134 147L133 146z"/>
<path style="fill:#862327; stroke:none;" d="M151 146L152 147L151 146z"/>
<path style="fill:#b49e9d; stroke:none;" d="M155 146L156 147L155 146M60 147C61.1393 148.015 61.6116 148.309 63 149C61.7772 147.805 61.58 147.684 60 147z"/>
<path style="fill:#862327; stroke:none;" d="M62.6667 147.333C62.2222 147.778 63.2778 147.722 63.3333 147.667C63.7778 147.222 62.7222 147.278 62.6667 147.333z"/>
<path style="fill:#b49e9d; stroke:none;" d="M113 147C114.248 147.685 114.548 147.749 116 148C114.752 147.315 114.452 147.251 113 147M124 147C122.814 148.186 122.472 148.584 122 150C123.548 148.738 123.808 148.806 124 147M127 147L128 148L127 147M132 147L133 148L132 147M144 147L145 148L144 147z"/>
<path style="fill:#862327; stroke:none;" d="M153 147L154 148L153 147z"/>
<path style="fill:#b49e9d; stroke:none;" d="M154 147L155 148L154 147M56 148C55.4549 149.635 55.6352 149.455 54 150C56.0335 150.785 56.7852 150.034 56 148z"/>
<path style="fill:#862327; stroke:none;" d="M57 150L62 149C59.6996 148.084 58.6232 148.121 57 150z"/>
<path style="fill:#281214; stroke:none;" d="M124 148C123.043 149.517 122.613 150.339 122 152C123.86 150.735 124.369 150.223 124 148z"/>
<path style="fill:#b49e9d; stroke:none;" d="M126 148L127 149L126 148M130 148L131 149L130 148M137 148L138 149L137 148M145 148L146 149L145 148M152 148L153 149L152 148M59 149L60 150L59 149M125 149L126 150L125 149M129 149L130 150L129 149M146 149L147 150L146 149M150 149L151 150L150 149M50 152C51.58 151.316 51.7772 151.195 53 150C51.42 150.684 51.2228 150.805 50 152z"/>
<path style="fill:#281214; stroke:none;" d="M53 150L54 151L53 150z"/>
<path style="fill:#b49e9d; stroke:none;" d="M124 150L125 151L124 150M66 151C65.0143 152.479 65 152.203 65 154C66.0817 152.616 66.1906 152.662 66 151M126 151L127 152L126 151M133 151L134 152L133 151z"/>
<path style="fill:#281214; stroke:none;" d="M66 152L63 161C65.7493 158.379 67.4118 155.74 66 152z"/>
<path style="fill:#b49e9d; stroke:none;" d="M120 152L121 153L120 152z"/>
<path style="fill:#281214; stroke:none;" d="M121 152L120 157L125 157C123.494 156.317 122.685 156.174 121 156C121.465 154.069 121.574 153.809 121 152z"/>
<path style="fill:#b49e9d; stroke:none;" d="M123.667 152.333C123.222 152.778 124.278 152.722 124.333 152.667C124.778 152.222 123.722 152.278 123.667 152.333M132 152L133 153L132 152z"/>
<path style="fill:#862327; stroke:none;" d="M120 153L121 154L120 153z"/>
<path style="fill:#b49e9d; stroke:none;" d="M131 153L132 154L131 153z"/>
<path style="fill:#862327; stroke:none;" d="M65 154L66 155L65 154z"/>
<path style="fill:#b49e9d; stroke:none;" d="M71.3333 154.667C71.2778 154.722 71.2222 155.778 71.6667 155.333C71.7222 155.278 71.7778 154.222 71.3333 154.667M105 154L105 157C105.696 155.446 105.696 155.554 105 154M119 154L119 157C119.696 155.446 119.696 155.554 119 154M129 154L130 155L129 154M127 155L128 156L127 155M64 156L65 157L64 156M67 156L68 157L67 156M125 156L126 157L125 156M63 157L57 172L60 172C61.3995 167.758 63.7592 161.326 63 157M66 157L67 158L66 157M120 157L121 158L120 157z"/>
<path style="fill:#862327; stroke:none;" d="M121.667 157.333C121.222 157.778 122.278 157.722 122.333 157.667C122.778 157.222 121.722 157.278 121.667 157.333z"/>
<path style="fill:#b49e9d; stroke:none;" d="M123 157L124 158L123 157M72.3333 158.667C72.2778 158.722 72.2222 159.778 72.6667 159.333C72.7222 159.278 72.7778 158.222 72.3333 158.667M104 158L105 159L104 158M107 158C107.691 159.388 107.985 159.861 109 161C109.048 158.67 109.203 158.994 107 158z"/>
<path style="fill:#862327; stroke:none;" d="M63 159L64 160L63 159z"/>
<path style="fill:#b49e9d; stroke:none;" d="M68 159L69 160L68 159M64 160L65 161L64 160z"/>
<path style="fill:#862327; stroke:none;" d="M62.6667 161.333C62.2222 161.778 63.2778 161.722 63.3333 161.667C63.7778 161.222 62.7222 161.278 62.6667 161.333z"/>
<path style="fill:#b49e9d; stroke:none;" d="M69 161L70 162L69 161z"/>
<path style="fill:#281214; stroke:none;" d="M70.3333 161.667C70.2778 161.722 70.2222 162.778 70.6667 162.333C70.7222 162.278 70.7778 161.222 70.3333 161.667z"/>
<path style="fill:#b49e9d; stroke:none;" d="M73.3333 161.667C73.2778 161.722 73.2222 162.778 73.6667 162.333C73.7222 162.278 73.7778 161.222 73.3333 161.667z"/>
<path style="fill:#281214; stroke:none;" d="M62 162L61 166C62.303 164.332 62.553 164.008 62 162z"/>
<path style="fill:#b49e9d; stroke:none;" d="M63 162L64 163L63 162M101 162L102 163L101 162M107 162L108 163L107 162M70 163L71 164L70 163M100 163L101 164L100 163M74 164L75 165L74 164M99 164L100 165L99 164M106 164L107 165L106 164M62 165L63 166L62 165M71 165L72 166L71 165M98 165L99 166L98 165M105 165L106 166L105 165z"/>
<path style="fill:#862327; stroke:none;" d="M61 166L62 167L61 166z"/>
<path style="fill:#b49e9d; stroke:none;" d="M75 166L76 167L75 166M97 166L98 167L97 166M72 167L73 168L72 167M76 167L77 168L76 167M96 167L97 168L96 167M73 168L74 169L73 168M94 168L95 169L94 168M93 169L94 170L93 169M79 170C79.5451 171.635 79.3648 171.455 81 172C80.4549 170.365 80.6352 170.545 79 170M91 170L92 171L91 170z"/>
<path style="fill:#862327; stroke:none;" d="M58 171C57.0143 172.479 57 172.203 57 174C58.2892 172.557 58.4009 172.766 58 171z"/>
<path style="fill:#281214; stroke:none;" d="M77 171C79.1623 173.171 81.0592 174.129 84 175C81.8444 172.542 80.2098 171.641 77 171z"/>
<path style="fill:#b49e9d; stroke:none;" d="M88 171L89 172L88 171M77 172L78 173L77 172M58 173L59 174L58 173M78 173L79 174L78 173z"/>
<path style="fill:#862327; stroke:none;" d="M79 173L80 174L79 173z"/>
<path style="fill:#b49e9d; stroke:none;" d="M97 173L98 174L97 173M56 174L56 178C57.0811 176.542 57.4361 175.752 58 174L56 174M80 174L81 175L80 174z"/>
<path style="fill:#862327; stroke:none;" d="M81 174L82 175L81 174z"/>
<path style="fill:#b49e9d; stroke:none;" d="M95 174L96 175L95 174M82.6667 175.333C82.2223 175.778 83.2778 175.722 83.3333 175.667C83.7778 175.222 82.7222 175.278 82.6667 175.333z"/>
<path style="fill:#281214; stroke:none;" d="M86 175C87.5061 175.683 88.3148 175.826 90 176C88.494 175.317 87.6852 175.174 86 175z"/>
<path style="fill:#b49e9d; stroke:none;" d="M92 175L93 176L92 175M116.667 181.333C116.222 181.778 117.278 181.722 117.333 181.667C117.778 181.222 116.722 181.278 116.667 181.333M45 182L46 183L45 182z"/>
<path style="fill:#281214; stroke:none;" d="M46 182C45.11 183.745 44.5471 185.125 44 187L47 185C47.2695 187.687 47.8182 189.57 49 192C49.6072 188.537 47.8585 184.94 46 182M57 182L57 192C58.2129 189.11 57.9983 186.126 58 183L63 183C60.9479 182.126 59.2528 182.047 57 182M75 191C75.6955 187.768 73.2738 186.146 71 184L75 183C67.7026 180.605 73.2518 188.601 75 191z"/>
<path style="fill:#b49e9d; stroke:none;" d="M75 182L76 183L75 182M82 182L83 183L82 182z"/>
<path style="fill:#281214; stroke:none;" d="M83 182C84.5061 182.683 85.3148 182.826 87 183L87 193C88.3274 189.837 87.9996 186.414 88 183L92 183C89.1103 181.787 86.1259 182.002 83 182z"/>
<path style="fill:#b49e9d; stroke:none;" d="M92 182L93 183L92 182z"/>
<path style="fill:#281214; stroke:none;" d="M98 182C98.6836 183.58 98.8048 183.777 100 185L100 182L98 182z"/>
<path style="fill:#b49e9d; stroke:none;" d="M105 182L105 186L100 186L100 188L105 188L105 193C106.334 189.682 106.291 185.329 105 182z"/>
<path style="fill:#281214; stroke:none;" d="M106 182L106 192C107.346 188.793 107.346 185.207 106 182z"/>
<path style="fill:#b49e9d; stroke:none;" d="M107 182L107 193C108.431 189.59 108.431 185.41 107 182z"/>
<path style="fill:#862327; stroke:none;" d="M113 182L113 192C114.346 188.793 114.346 185.207 113 182z"/>
<path style="fill:#281214; stroke:none;" d="M114 182L114 193C115.327 189.837 115 186.414 115 183L119 183C117.231 182.221 115.964 182.088 114 182z"/>
<path style="fill:#b49e9d; stroke:none;" d="M119 182L120 183L119 182M126 182L127 183L126 182z"/>
<path style="fill:#281214; stroke:none;" d="M127 182C128.248 182.685 128.548 182.749 130 183L130 192L132 192C132.013 188.231 131.648 185.173 135 183C132.387 181.902 129.835 182.007 127 182z"/>
<path style="fill:#862327; stroke:none;" d="M135 182L136 183L135 182z"/>
<path style="fill:#281214; stroke:none;" d="M142 182L142 193C143.431 189.59 143.431 185.41 142 182z"/>
<path style="fill:#862327; stroke:none;" d="M143 182L143 192C144.346 188.793 144.346 185.207 143 182z"/>
<path style="fill:#b49e9d; stroke:none;" d="M152 182C150.814 183.186 150.472 183.584 150 185L154 184C153.455 182.365 153.635 182.545 152 182z"/>
<path style="fill:#281214; stroke:none;" d="M153 182C154.506 182.683 155.315 182.826 157 183C155.494 182.317 154.685 182.174 153 182z"/>
<path style="fill:#b49e9d; stroke:none;" d="M157 182L157 184L159 184L159 182L157 182M166 182L165 184C166.263 183.029 166.392 183.306 166 182z"/>
<path style="fill:#281214; stroke:none;" d="M167 182C168.248 182.685 168.548 182.749 170 183C168.752 182.315 168.452 182.251 167 182z"/>
<path style="fill:#862327; stroke:none;" d="M170 182L171 183L170 182z"/>
<path style="fill:#b49e9d; stroke:none;" d="M47.3333 183.667C47.2778 183.722 47.2222 184.778 47.6667 184.333C47.7222 184.278 47.7778 183.222 47.3333 183.667M58 183L58 191L61 188L61 186L58 183M86 183L86 193C87.3457 189.793 87.3457 186.207 86 183M88 183L88 193C89.3457 189.793 89.3457 186.207 88 183z"/>
<path style="fill:#281214; stroke:none;" d="M152 183L153 184L152 183M166 183L167 184L166 183z"/>
<path style="fill:#b49e9d; stroke:none;" d="M44 184L45 185L44 184M71 184L72 185L71 184z"/>
<path style="fill:#862327; stroke:none;" d="M98 184L98 192L100 192C99.8551 188.922 99.7554 186.54 98 184z"/>
<path style="fill:#281214; stroke:none;" d="M151 184L152 185L151 184z"/>
<path style="fill:#862327; stroke:none;" d="M165.667 184.333C165.222 184.778 166.278 184.722 166.333 184.667C166.778 184.222 165.722 184.278 165.667 184.333z"/>
<path style="fill:#b49e9d; stroke:none;" d="M45 185L45 188C47.0059 186.873 47.0059 186.127 45 185M72 185L73 186L72 185z"/>
<path style="fill:#862327; stroke:none;" d="M150.667 185.333C150.222 185.778 151.278 185.722 151.333 185.667C151.778 185.222 150.722 185.278 150.667 185.333z"/>
<path style="fill:#b49e9d; stroke:none;" d="M165 185L166 186L165 185z"/>
<path style="fill:#281214; stroke:none;" d="M166 185C167.606 186.914 168.783 187.837 171 189C169.394 187.086 168.217 186.163 166 185z"/>
<path style="fill:#b49e9d; stroke:none;" d="M167 185L168 186L167 185z"/>
<path style="fill:#fffefe; stroke:none;" d="M45 186L46 187L45 186z"/>
<path style="fill:#b49e9d; stroke:none;" d="M48 186L49 187L48 186z"/>
<path style="fill:#862327; stroke:none;" d="M58.3333 186.667C58.2778 186.722 58.2222 187.778 58.6667 187.333C58.7222 187.278 58.7778 186.222 58.3333 186.667z"/>
<path style="fill:#b49e9d; stroke:none;" d="M70 186L71 187L70 186z"/>
<path style="fill:#862327; stroke:none;" d="M73 186L74 187L73 186z"/>
<path style="fill:#b49e9d; stroke:none;" d="M74 186L75 187L74 186z"/>
<path style="fill:#281214; stroke:none;" d="M99.3333 186.667C99.2778 186.722 99.2222 187.778 99.6667 187.333C99.7222 187.278 99.7778 186.222 99.3333 186.667z"/>
<path style="fill:#862327; stroke:none;" d="M105.333 186.667C105.278 186.722 105.222 187.778 105.667 187.333C105.722 187.278 105.778 186.222 105.333 186.667z"/>
<path style="fill:#b49e9d; stroke:none;" d="M115 186L115 188L118 188L118 186L115 186z"/>
<path style="fill:#281214; stroke:none;" d="M150 186L150 189C150.696 187.446 150.696 187.554 150 186z"/>
<path style="fill:#b49e9d; stroke:none;" d="M151.333 186.667C151.278 186.722 151.222 187.778 151.667 187.333C151.722 187.278 151.778 186.222 151.333 186.667z"/>
<path style="fill:#862327; stroke:none;" d="M166 186L167 187L166 186z"/>
<path style="fill:#b49e9d; stroke:none;" d="M169 186L170 187L169 186M43 187L44 188L43 187z"/>
<path style="fill:#862327; stroke:none;" d="M44 187C43.11 188.745 42.5471 190.125 42 192C43.6662 190.745 45.0987 189.841 47 189C45.8606 187.985 45.3884 187.691 44 187M48 187L49 188L48 187z"/>
<path style="fill:#b49e9d; stroke:none;" d="M72 187L73 188L72 187M75 187L76 188L75 187M167 187L168 188L167 187z"/>
<path style="fill:#862327; stroke:none;" d="M170 187L171 188L170 187z"/>
<path style="fill:#b49e9d; stroke:none;" d="M49.3333 188.667C49.2778 188.722 49.2222 189.778 49.6667 189.333C49.7222 189.278 49.7778 188.222 49.3333 188.667M73 188L74 189L73 188M76 188L76 191C76.6961 189.446 76.6961 189.554 76 188z"/>
<path style="fill:#862327; stroke:none;" d="M151 188L150 190L152 190C152 188.147 152.3 188.65 151 188z"/>
<path style="fill:#b49e9d; stroke:none;" d="M169 188L170 189L169 188M171 188L172 189L171 188M42 189L43 190L42 189M47 189L48 190L47 189M74 189C72.6629 190.28 71.6002 191.03 70 192L75 193C74.8069 191.474 74.6306 190.372 74 189z"/>
<path style="fill:#862327; stroke:none;" d="M170 189L170 192C171.195 190.777 171.316 190.58 172 189L170 189z"/>
<path style="fill:#b49e9d; stroke:none;" d="M43 190L44 191L43 190M150 190C151.103 191.457 151.543 191.897 153 193L153 190L150 190z"/>
<path style="fill:#281214; stroke:none;" d="M151 190L152 191L151 190z"/>
<path style="fill:#b49e9d; stroke:none;" d="M41 191L41 193L43 193C42.4549 191.365 42.6352 191.545 41 191M48 191L49 192L48 191M50.3333 191.667C50.2778 191.722 50.2222 192.778 50.6667 192.333C50.7222 192.278 50.7778 191.222 50.3333 191.667z"/>
<path style="fill:#862327; stroke:none;" d="M57 192C59.0521 192.874 60.7472 192.953 63 193C60.8137 191.884 59.4506 191.773 57 192z"/>
<path style="fill:#281214; stroke:none;" d="M70 191L71 192L70 191z"/>
<path style="fill:#862327; stroke:none;" d="M74.6667 191.333C74.2222 191.778 75.2778 191.722 75.3333 191.667C75.7778 191.222 74.7222 191.278 74.6667 191.333z"/>
<path style="fill:#b49e9d; stroke:none;" d="M115 191C116.769 191.779 118.036 191.912 120 192C118.231 191.221 116.964 191.088 115 191z"/>
<path style="fill:#281214; stroke:none;" d="M152 191L153 192L152 191z"/>
<path style="fill:#862327; stroke:none;" d="M153 191C154.314 192.618 154.877 192.693 157 193C155.623 192.089 154.56 191.596 153 191z"/>
<path style="fill:#b49e9d; stroke:none;" d="M154 191C155.693 192.062 157.04 192.52 159 193C157.46 191.197 156.403 191.168 154 191M165 191C167.057 192.582 168.388 192.826 171 193C168.943 191.418 167.612 191.174 165 191M171 191L172 192L171 191z"/>
<path style="fill:#862327; stroke:none;" d="M49 192L50 193L49 192M71 192C72.2484 192.685 72.5484 192.749 74 193C72.7517 192.315 72.4516 192.251 71 192z"/>
<path style="fill:#b49e9d; stroke:none;" d="M98.6667 192.333C98.2222 192.778 99.2778 192.722 99.3333 192.667C99.7778 192.222 98.7222 192.278 98.6667 192.333z"/>
<path style="fill:#862327; stroke:none;" d="M106 192L107 193L106 192z"/>
<path style="fill:#b49e9d; stroke:none;" d="M113 192L114 193L113 192z"/>
<path style="fill:#862327; stroke:none;" d="M115 192C116.769 192.779 118.036 192.912 120 193C118.231 192.221 116.964 192.088 115 192z"/>
<path style="fill:#b49e9d; stroke:none;" d="M130.667 192.333C130.222 192.778 131.278 192.722 131.333 192.667C131.778 192.222 130.722 192.278 130.667 192.333M143 192L144 193L143 192z"/>
</svg>
